<?xml version="1.0" encoding="UTF-8" standalone="no"?>
<!-- Created with Inkscape (http://www.inkscape.org/) -->

<svg
   xmlns:dc="http://purl.org/dc/elements/1.1/"
   xmlns:cc="http://creativecommons.org/ns#"
   xmlns:rdf="http://www.w3.org/1999/02/22-rdf-syntax-ns#"
   xmlns:svg="http://www.w3.org/2000/svg"
   xmlns="http://www.w3.org/2000/svg"
   xmlns:sodipodi="http://sodipodi.sourceforge.net/DTD/sodipodi-0.dtd"
   xmlns:inkscape="http://www.inkscape.org/namespaces/inkscape"
   version="1.1"
   id="svg2"
   xml:space="preserve"
   width="225.55441"
   height="31.496532"
   viewBox="0 0 225.55441 31.496533"
   sodipodi:docname="app-logo.svg"
   inkscape:version="0.92.2 (5c3e80d, 2017-08-06)"><metadata
     id="metadata8"><rdf:RDF><cc:Work
         rdf:about=""><dc:format>image/svg+xml</dc:format><dc:type
           rdf:resource="http://purl.org/dc/dcmitype/StillImage" /><dc:title></dc:title></cc:Work></rdf:RDF></metadata><defs
     id="defs6"><clipPath
       clipPathUnits="userSpaceOnUse"
       id="clipPath18"><path
         d="M 0,0 H 130.394 V 45.354 H 0 Z"
         id="path16"
         inkscape:connector-curvature="0" /></clipPath></defs><sodipodi:namedview
     pagecolor="#ffffff"
     bordercolor="#666666"
     borderopacity="1"
     objecttolerance="10"
     gridtolerance="10"
     guidetolerance="10"
     inkscape:pageopacity="0"
     inkscape:pageshadow="2"
     inkscape:window-width="1920"
     inkscape:window-height="1137"
     id="namedview4"
     showgrid="false"
     fit-margin-top="0"
     fit-margin-left="0"
     fit-margin-right="0"
     fit-margin-bottom="0"
     inkscape:zoom="3.001546"
     inkscape:cx="-4.2348028"
     inkscape:cy="-83.474882"
     inkscape:window-x="2552"
     inkscape:window-y="103"
     inkscape:window-maximized="1"
     inkscape:current-layer="g10" /><g
     id="g10"
     inkscape:groupmode="layer"
     inkscape:label="OptoFidelity_logo_rgb"
     transform="matrix(1.3333333,0,0,-1.3333333,-68.017994,56.518933)"><g
       id="g20"
       transform="translate(220.17931,31.152801)"><path
         d="m 0,0 c 0,0.209 -0.077,0.395 -0.23,0.554 -0.152,0.161 -0.372,0.24 -0.659,0.24 -0.287,0 -0.526,-0.141 -0.717,-0.425 L -5.601,-5.25 -9.596,0.369 c -0.191,0.284 -0.431,0.425 -0.717,0.425 -0.286,0 -0.507,-0.079 -0.66,-0.24 -0.153,-0.159 -0.23,-0.345 -0.23,-0.554 0,-0.21 0.051,-0.395 0.154,-0.555 l 4.568,-6.193 v -4.714 c 0,-0.234 0.086,-0.432 0.258,-0.591 0.172,-0.161 0.38,-0.241 0.622,-0.241 0.242,0 0.446,0.08 0.611,0.241 0.166,0.159 0.249,0.357 0.249,0.591 v 4.714 l 4.588,6.193 C -0.051,-0.395 0,-0.21 0,0 m -12.467,-0.647 c 0.16,0.148 0.24,0.333 0.24,0.554 0,0.222 -0.08,0.41 -0.24,0.564 -0.159,0.155 -0.354,0.231 -0.582,0.231 h -9.52 c -0.23,0 -0.421,-0.076 -0.574,-0.231 -0.153,-0.154 -0.229,-0.342 -0.229,-0.564 0,-0.221 0.076,-0.406 0.229,-0.554 0.153,-0.148 0.344,-0.222 0.574,-0.222 h 3.899 v -10.593 c 0,-0.234 0.083,-0.432 0.249,-0.592 0.166,-0.16 0.369,-0.24 0.611,-0.24 0.242,0 0.449,0.08 0.622,0.24 0.172,0.16 0.257,0.358 0.257,0.592 v 10.593 h 3.882 c 0.228,0 0.423,0.074 0.582,0.222 m -12.329,-11.406 c 0.171,0.16 0.258,0.357 0.258,0.591 v 11.407 c 0,0.233 -0.087,0.434 -0.258,0.6 -0.172,0.167 -0.38,0.25 -0.621,0.25 -0.243,0 -0.447,-0.083 -0.612,-0.25 -0.166,-0.166 -0.248,-0.367 -0.248,-0.6 v -11.407 c 0,-0.234 0.082,-0.431 0.248,-0.591 0.165,-0.161 0.369,-0.24 0.612,-0.24 0.241,0 0.449,0.079 0.621,0.24 m -2.924,0.092 c 0.172,0.16 0.257,0.357 0.257,0.592 0,0.233 -0.085,0.434 -0.257,0.6 -0.173,0.167 -0.38,0.25 -0.622,0.25 h -6.251 v 10.463 c 0,0.234 -0.086,0.435 -0.258,0.601 -0.171,0.167 -0.379,0.25 -0.621,0.25 -0.242,0 -0.447,-0.083 -0.611,-0.25 -0.166,-0.166 -0.249,-0.367 -0.249,-0.601 v -10.981 c 0,-0.32 0.118,-0.595 0.354,-0.822 0.235,-0.229 0.519,-0.343 0.85,-0.343 h 6.786 c 0.242,0 0.449,0.08 0.622,0.241 m -18.211,1.239 v 4.085 h 5.888 c 0.23,0 0.424,0.078 0.583,0.231 0.159,0.155 0.239,0.342 0.239,0.564 0,0.222 -0.08,0.407 -0.239,0.555 -0.039,0.037 -0.082,0.069 -0.126,0.097 -0.002,0.001 -0.002,0.003 -0.004,0.005 -0.16,0.153 -0.354,0.231 -0.584,0.231 h -5.757 v 4.085 h 6.427 c 0.229,0 0.423,0.074 0.582,0.222 0.16,0.148 0.24,0.332 0.24,0.555 0,0.221 -0.08,0.409 -0.24,0.563 -0.159,0.154 -0.353,0.231 -0.582,0.231 h -7.436 c -0.243,0 -0.446,-0.083 -0.612,-0.249 C -47.718,0.286 -47.8,0.086 -47.8,-0.148 v -11.314 c 0,-0.234 0.082,-0.431 0.248,-0.591 0.166,-0.16 0.369,-0.241 0.612,-0.241 0.022,0 0.044,0.002 0.066,0.003 0.022,-10e-4 0.043,-0.003 0.065,-0.003 h 7.436 c 0.229,0 0.423,0.078 0.582,0.231 0.16,0.154 0.24,0.342 0.24,0.564 0,0.222 -0.08,0.407 -0.24,0.555 -0.159,0.148 -0.353,0.222 -0.582,0.222 z m -3.934,2.652 c 0.274,0.77 0.411,1.544 0.411,2.321 0,0.776 -0.137,1.549 -0.411,2.319 -0.274,0.771 -0.691,1.458 -1.252,2.061 -1.262,1.381 -2.957,2.071 -5.085,2.071 h -3.637 c -0.242,0 -0.446,-0.083 -0.612,-0.249 -0.165,-0.167 -0.248,-0.367 -0.248,-0.601 v -11.221 c 0,-0.235 0.083,-0.432 0.248,-0.592 0.166,-0.161 0.37,-0.241 0.612,-0.241 h 3.637 c 2.128,0 3.823,0.691 5.085,2.071 0.561,0.604 0.978,1.291 1.252,2.061 m -1.309,2.321 c 0,-1.455 -0.472,-2.632 -1.415,-3.532 -0.968,-0.899 -2.243,-1.349 -3.823,-1.349 h -2.547 v 9.761 h 2.547 c 1.58,0 2.855,-0.45 3.823,-1.35 0.943,-0.9 1.415,-2.076 1.415,-3.53 m -12.274,-6.304 c 0.171,0.16 0.258,0.357 0.258,0.591 v 11.407 c 0,0.233 -0.087,0.434 -0.258,0.6 -0.172,0.167 -0.38,0.25 -0.622,0.25 -0.242,0 -0.446,-0.083 -0.612,-0.25 -0.165,-0.166 -0.248,-0.367 -0.248,-0.6 v -11.407 c 0,-0.234 0.083,-0.431 0.248,-0.591 0.166,-0.161 0.37,-0.24 0.612,-0.24 0.242,0 0.45,0.079 0.622,0.24 m -3.437,11.406 c 0.158,0.148 0.238,0.332 0.238,0.555 0,0.221 -0.08,0.409 -0.238,0.563 -0.16,0.154 -0.354,0.231 -0.584,0.231 h -7.436 c -0.242,0 -0.446,-0.083 -0.612,-0.25 -0.166,-0.165 -0.248,-0.366 -0.248,-0.6 v -11.314 c 0,-0.234 0.082,-0.431 0.248,-0.592 0.166,-0.16 0.37,-0.24 0.612,-0.24 0.242,0 0.449,0.08 0.622,0.24 0.172,0.161 0.257,0.358 0.257,0.592 v 4.936 h 5.888 c 0.229,0 0.423,0.074 0.583,0.222 0.159,0.148 0.239,0.332 0.239,0.555 0,0.221 -0.08,0.409 -0.239,0.563 -0.16,0.154 -0.354,0.231 -0.583,0.231 h -5.888 v 4.086 h 6.557 c 0.23,0 0.424,0.074 0.584,0.222 m -12.665,-9.872 c 1.186,1.22 1.803,2.81 1.854,4.77 -0.051,1.959 -0.668,3.549 -1.854,4.769 -1.223,1.245 -2.842,1.867 -4.855,1.867 -2.027,0 -3.645,-0.622 -4.855,-1.867 -1.211,-1.233 -1.829,-2.822 -1.855,-4.769 0.026,-1.948 0.644,-3.537 1.855,-4.77 1.21,-1.245 2.828,-1.867 4.855,-1.867 2.013,0 3.632,0.622 4.855,1.867 m 0.115,4.77 c 0,-1.467 -0.434,-2.669 -1.3,-3.605 -0.892,-0.974 -2.115,-1.461 -3.67,-1.461 -1.555,0 -2.779,0.487 -3.671,1.461 -0.866,0.936 -1.299,2.138 -1.299,3.605 0,1.466 0.433,2.668 1.299,3.604 0.892,0.974 2.116,1.461 3.671,1.461 1.555,0 2.778,-0.487 3.67,-1.461 0.866,-0.936 1.3,-2.138 1.3,-3.604 m -11.687,5.102 c 0.159,0.148 0.239,0.333 0.239,0.554 0,0.222 -0.08,0.41 -0.239,0.564 -0.159,0.155 -0.353,0.231 -0.582,0.231 h -9.52 c -0.23,0 -0.421,-0.076 -0.574,-0.231 -0.153,-0.154 -0.23,-0.342 -0.23,-0.564 0,-0.221 0.077,-0.406 0.23,-0.554 0.153,-0.148 0.344,-0.222 0.574,-0.222 h 3.9 v -10.593 c 0,-0.234 0.082,-0.432 0.248,-0.592 0.165,-0.16 0.369,-0.24 0.612,-0.24 0.241,0 0.448,0.08 0.62,0.24 0.173,0.16 0.259,0.358 0.259,0.592 v 10.593 h 3.881 c 0.229,0 0.423,0.074 0.582,0.222 m -12.192,-5.528 c 0.739,0.715 1.109,1.639 1.109,2.773 0,1.134 -0.37,2.058 -1.109,2.773 -0.892,0.888 -2.225,1.331 -3.995,1.331 h -4.358 c -0.243,0 -0.448,-0.083 -0.612,-0.249 -0.166,-0.167 -0.249,-0.367 -0.249,-0.601 v -11.314 c 0,-0.234 0.083,-0.432 0.249,-0.592 0.164,-0.16 0.369,-0.24 0.612,-0.24 0.241,0 0.448,0.08 0.62,0.24 0.172,0.16 0.258,0.358 0.258,0.592 v 3.956 h 3.48 c 1.77,0 3.103,0.444 3.995,1.331 m -0.631,2.773 c 0,-0.715 -0.229,-1.282 -0.688,-1.701 -0.586,-0.542 -1.536,-0.813 -2.849,-0.813 h -3.307 v 5.028 h 3.307 c 0.714,0 1.3,-0.073 1.759,-0.221 1.185,-0.382 1.778,-1.147 1.778,-2.293 m -12.049,-7.117 c 1.185,1.22 1.803,2.81 1.854,4.77 -0.051,1.959 -0.669,3.549 -1.854,4.769 -1.223,1.245 -2.842,1.867 -4.856,1.867 -2.026,0 -3.644,-0.622 -4.855,-1.867 -1.211,-1.233 -1.829,-2.822 -1.854,-4.769 0.025,-1.948 0.643,-3.537 1.854,-4.77 1.211,-1.245 2.829,-1.867 4.855,-1.867 2.014,0 3.633,0.622 4.856,1.867 m 0.114,4.77 c 0,-1.467 -0.433,-2.669 -1.299,-3.605 -0.893,-0.974 -2.116,-1.461 -3.671,-1.461 -1.555,0 -2.778,0.487 -3.67,1.461 -0.866,0.936 -1.3,2.138 -1.3,3.605 0,1.466 0.434,2.668 1.3,3.604 0.892,0.974 2.115,1.461 3.67,1.461 1.555,0 2.778,-0.487 3.671,-1.461 0.866,-0.936 1.299,-2.138 1.299,-3.604"
         style="fill:#4a4a49;fill-opacity:1;fill-rule:nonzero;stroke:none"
         id="path22"
         inkscape:connector-curvature="0" /></g><g
       id="g24"
       transform="translate(51.013497,28.519801)"><path
         d="m 0,0 c 0,1.215 1.018,2.2 2.274,2.2 h 7.811 C 11.342,2.2 12.36,1.215 12.36,0 v -7.554 c 0,-1.215 -1.018,-2.199 -2.275,-2.199 H 2.274 C 1.018,-9.753 0,-8.769 0,-7.554 Z"
         style="fill:#e63312;fill-opacity:1;fill-rule:nonzero;stroke:none"
         id="path26"
         inkscape:connector-curvature="0" /></g><g
       id="g28"
       transform="translate(62.307997,40.190201)"><path
         d="m 0,0 c 0,1.215 1.018,2.199 2.274,2.199 h 7.812 C 11.342,2.199 12.36,1.215 12.36,0 v -7.554 c 0,-1.215 -1.018,-2.199 -2.274,-2.199 H 2.274 C 1.018,-9.753 0,-8.769 0,-7.554 Z"
         style="fill:#76b82a;fill-opacity:1;fill-rule:nonzero;stroke:none"
         id="path30"
         inkscape:connector-curvature="0" /></g><g
       id="g32"
       transform="translate(73.591297,28.519801)"><path
         d="m 0,0 c 0,1.215 1.018,2.2 2.274,2.2 h 7.812 C 11.342,2.2 12.36,1.215 12.36,0 v -7.554 c 0,-1.215 -1.018,-2.199 -2.274,-2.199 H 2.274 C 1.018,-9.753 0,-8.769 0,-7.554 Z"
         style="fill:#0069b4;fill-opacity:1;fill-rule:nonzero;stroke:none"
         id="path34"
         inkscape:connector-curvature="0" /></g></g></svg>