<?xml version="1.0" encoding="UTF-8" standalone="no"?>
<!-- Created with Inkscape (http://www.inkscape.org/) -->

<svg
   xmlns:dc="http://purl.org/dc/elements/1.1/"
   xmlns:cc="http://creativecommons.org/ns#"
   xmlns:rdf="http://www.w3.org/1999/02/22-rdf-syntax-ns#"
   xmlns:svg="http://www.w3.org/2000/svg"
   xmlns="http://www.w3.org/2000/svg"
   xmlns:sodipodi="http://sodipodi.sourceforge.net/DTD/sodipodi-0.dtd"
   xmlns:inkscape="http://www.inkscape.org/namespaces/inkscape"
   version="1.1"
   id="svg2"
   xml:space="preserve"
   width="46.583733"
   height="31.496532"
   viewBox="0 0 46.583732 31.496533"
   sodipodi:docname="of-logo.svg"
   inkscape:version="0.92.2 (5c3e80d, 2017-08-06)"><metadata
     id="metadata8"><rdf:RDF><cc:Work
         rdf:about=""><dc:format>image/svg+xml</dc:format><dc:type
           rdf:resource="http://purl.org/dc/dcmitype/StillImage" /><dc:title></dc:title></cc:Work></rdf:RDF></metadata><defs
     id="defs6"><clipPath
       clipPathUnits="userSpaceOnUse"
       id="clipPath18"><path
         d="M 0,0 H 130.394 V 45.354 H 0 Z"
         id="path16"
         inkscape:connector-curvature="0" /></clipPath></defs><sodipodi:namedview
     pagecolor="#ffffff"
     bordercolor="#666666"
     borderopacity="1"
     objecttolerance="10"
     gridtolerance="10"
     guidetolerance="10"
     inkscape:pageopacity="0"
     inkscape:pageshadow="2"
     inkscape:window-width="2560"
     inkscape:window-height="1361"
     id="namedview4"
     showgrid="false"
     fit-margin-top="0"
     fit-margin-left="0"
     fit-margin-right="0"
     fit-margin-bottom="0"
     inkscape:zoom="3.001546"
     inkscape:cx="-59.872798"
     inkscape:cy="-83.474882"
     inkscape:window-x="2551"
     inkscape:window-y="-9"
     inkscape:window-maximized="1"
     inkscape:current-layer="g10" /><g
     id="g10"
     inkscape:groupmode="layer"
     inkscape:label="OptoFidelity_logo_rgb"
     transform="matrix(1.3333333,0,0,-1.3333333,-68.017994,56.518933)"><g
       id="g24"
       transform="translate(51.013497,28.519801)"><path
         d="m 0,0 c 0,1.215 1.018,2.2 2.274,2.2 h 7.811 C 11.342,2.2 12.36,1.215 12.36,0 v -7.554 c 0,-1.215 -1.018,-2.199 -2.275,-2.199 H 2.274 C 1.018,-9.753 0,-8.769 0,-7.554 Z"
         style="fill:#e63312;fill-opacity:1;fill-rule:nonzero;stroke:none"
         id="path26"
         inkscape:connector-curvature="0" /></g><g
       id="g28"
       transform="translate(62.307997,40.190201)"><path
         d="m 0,0 c 0,1.215 1.018,2.199 2.274,2.199 h 7.812 C 11.342,2.199 12.36,1.215 12.36,0 v -7.554 c 0,-1.215 -1.018,-2.199 -2.274,-2.199 H 2.274 C 1.018,-9.753 0,-8.769 0,-7.554 Z"
         style="fill:#76b82a;fill-opacity:1;fill-rule:nonzero;stroke:none"
         id="path30"
         inkscape:connector-curvature="0" /></g><g
       id="g32"
       transform="translate(73.591297,28.519801)"><path
         d="m 0,0 c 0,1.215 1.018,2.2 2.274,2.2 h 7.812 C 11.342,2.2 12.36,1.215 12.36,0 v -7.554 c 0,-1.215 -1.018,-2.199 -2.274,-2.199 H 2.274 C 1.018,-9.753 0,-8.769 0,-7.554 Z"
         style="fill:#0069b4;fill-opacity:1;fill-rule:nonzero;stroke:none"
         id="path34"
         inkscape:connector-curvature="0" /></g></g></svg>