<?xml version="1.0" encoding="UTF-8" standalone="no"?>
<svg
   xmlns:dc="http://purl.org/dc/elements/1.1/"
   xmlns:cc="http://creativecommons.org/ns#"
   xmlns:rdf="http://www.w3.org/1999/02/22-rdf-syntax-ns#"
   xmlns:svg="http://www.w3.org/2000/svg"
   xmlns="http://www.w3.org/2000/svg"
   xmlns:sodipodi="http://sodipodi.sourceforge.net/DTD/sodipodi-0.dtd"
   xmlns:inkscape="http://www.inkscape.org/namespaces/inkscape"
   version="1.1"
   viewBox="0 0 546.93866 228.03281"
   stroke-miterlimit="10"
   id="svg194"
   sodipodi:docname="tip_dimensions.svg"
   width="546.93866"
   height="228.03281"
   style="fill:none;stroke:none;stroke-linecap:square;stroke-miterlimit:10"
   inkscape:version="0.92.2 (5c3e80d, 2017-08-06)">
  <metadata
     id="metadata200">
    <rdf:RDF>
      <cc:Work
         rdf:about="">
        <dc:format>image/svg+xml</dc:format>
        <dc:type
           rdf:resource="http://purl.org/dc/dcmitype/StillImage" />
        <dc:title></dc:title>
      </cc:Work>
    </rdf:RDF>
  </metadata>
  <defs
     id="defs198" />
  <sodipodi:namedview
     pagecolor="#ffffff"
     bordercolor="#666666"
     borderopacity="1"
     objecttolerance="10"
     gridtolerance="10"
     guidetolerance="10"
     inkscape:pageopacity="0"
     inkscape:pageshadow="2"
     inkscape:window-width="1920"
     inkscape:window-height="1137"
     id="namedview196"
     showgrid="false"
     fit-margin-top="0"
     fit-margin-left="0"
     fit-margin-right="0"
     fit-margin-bottom="0"
     inkscape:zoom="1.7481482"
     inkscape:cx="260.74549"
     inkscape:cy="178.55092"
     inkscape:window-x="2552"
     inkscape:window-y="-8"
     inkscape:window-maximized="1"
     inkscape:current-layer="g192" />
  <clipPath
     id="p.0">
    <path
       d="M 0,0 H 960 V 540 H 0 Z"
       id="path2"
       inkscape:connector-curvature="0"
       style="clip-rule:nonzero" />
  </clipPath>
  <g
     clip-path="url(#p.0)"
     id="g192"
     transform="translate(-26.704535,-94.583425)">
    <path
       d="m 27.215411,149.74692 h 43.484988 v 99.70594 H 27.215411 Z"
       id="path11"
       inkscape:connector-curvature="0"
       style="fill:#eeeeee;fill-rule:evenodd;stroke-width:1" />
    <path
       d="m 27.215411,149.74692 h 43.484988 v 99.70594 H 27.215411 Z"
       id="path13"
       inkscape:connector-curvature="0"
       style="fill-rule:evenodd;stroke:#595959;stroke-width:1;stroke-linecap:butt;stroke-linejoin:round" />
    <path
       d="m 41.051546,149.74692 h 15.81272 v 48.76212 h -15.81272 z"
       id="path15"
       inkscape:connector-curvature="0"
       style="fill:#ffffff;fill-rule:evenodd;stroke-width:1" />
    <path
       d="m 41.051546,149.74692 h 15.81272 v 48.76212 h -15.81272 z"
       id="path17"
       inkscape:connector-curvature="0"
       style="fill-rule:evenodd;stroke:#595959;stroke-width:1;stroke-linecap:butt;stroke-linejoin:round" />
    <path
       d="m 80.796242,198.50904 v 0 c 7.883502,0 14.274335,1.0651 14.274335,2.37895 v 20.714 c 0,1.31387 6.390843,2.37896 14.274343,2.37896 v 0 c -7.8835,0 -14.274343,1.0651 -14.274343,2.37895 v 20.714 c 0,1.31387 -6.390833,2.37896 -14.274335,2.37896 z"
       id="path19"
       inkscape:connector-curvature="0"
       style="fill:#000000;fill-opacity:0;fill-rule:evenodd;stroke-width:1" />
    <path
       d="m 80.796242,198.50904 v 0 c 7.883502,0 14.274335,1.0651 14.274335,2.37895 v 20.714 c 0,1.31387 6.390843,2.37896 14.274343,2.37896 v 0 c -7.8835,0 -14.274343,1.0651 -14.274343,2.37895 v 20.714 c 0,1.31387 -6.390833,2.37896 -14.274335,2.37896"
       id="path21"
       inkscape:connector-curvature="0"
       style="fill:#000000;fill-opacity:0;fill-rule:evenodd;stroke-width:1" />
    <path
       d="m 80.796242,198.50904 v 0 c 7.883502,0 14.274335,1.0651 14.274335,2.37895 v 20.714 c 0,1.31387 6.390843,2.37896 14.274343,2.37896 v 0 c -7.8835,0 -14.274343,1.0651 -14.274343,2.37895 v 20.714 c 0,1.31387 -6.390833,2.37896 -14.274335,2.37896"
       id="path23"
       inkscape:connector-curvature="0"
       style="fill-rule:evenodd;stroke:#595959;stroke-width:1;stroke-linecap:butt;stroke-linejoin:round" />
    <path
       d="m 520.05147,213.65513 h 53.59172 v 16.26025 h -53.59172 z"
       id="path25"
       inkscape:connector-curvature="0"
       style="fill:#000000;fill-opacity:0;fill-rule:evenodd;stroke-width:1" />
    <path
       d="m 525.95344,226.5617 v -5.65217 h 0.74931 v 4.98612 h 2.78446 v 0.66605 z m 7.13598,-1.3136 0.7123,0.0833 q -0.16651,0.62905 -0.62904,0.98057 -0.45329,0.34228 -1.16559,0.34228 -0.89732,0 -1.42461,-0.55505 -0.52729,-0.55504 -0.52729,-1.54486 0,-1.03608 0.52729,-1.60037 0.53654,-0.57355 1.3876,-0.57355 0.82331,0 1.34135,0.55505 0.51804,0.55504 0.51804,1.57261 0,0.0648 0,0.18502 h -3.05273 q 0.037,0.6753 0.37928,1.03608 0.34228,0.35152 0.85107,0.35152 0.38853,0 0.65679,-0.19426 0.26828,-0.20351 0.42554,-0.6383 z m -2.27568,-1.12859 h 2.28493 q -0.0462,-0.50878 -0.25902,-0.7678 -0.33302,-0.40703 -0.86032,-0.40703 -0.48103,0 -0.80481,0.32377 -0.32377,0.31452 -0.36078,0.85106 z m 3.86123,2.44219 v -4.08881 h 0.62905 v 0.5828 q 0.44403,-0.67531 1.2951,-0.67531 0.37002,0 0.68455,0.12951 0.31452,0.12951 0.46253,0.35153 0.15727,0.21277 0.22202,0.50879 0.037,0.19426 0.037,0.6753 v 2.51619 h -0.6938 v -2.48844 q 0,-0.42553 -0.0833,-0.62904 -0.0833,-0.21277 -0.28676,-0.33303 -0.20352,-0.12951 -0.48104,-0.12951 -0.44403,0 -0.76781,0.27752 -0.32377,0.27752 -0.32377,1.06383 v 2.23867 z m 4.25901,0.34228 0.6753,0.0925 q 0.0462,0.31452 0.24052,0.46253 0.25902,0.18501 0.70305,0.18501 0.48104,0 0.74006,-0.19426 0.26827,-0.18502 0.36078,-0.53654 0.0555,-0.21277 0.0462,-0.88807 -0.45329,0.53654 -1.12859,0.53654 -0.85106,0 -1.3136,-0.61055 -0.46253,-0.61054 -0.46253,-1.46161 0,-0.58279 0.21277,-1.07308 0.21276,-0.49954 0.61054,-0.7678 0.40703,-0.26828 0.95282,-0.26828 0.72156,0 1.19334,0.5828 v -0.49029 h 0.6383 v 3.53377 q 0,0.95282 -0.19426,1.3506 -0.19427,0.40703 -0.6198,0.6383 -0.41628,0.23127 -1.03608,0.23127 -0.7308,0 -1.18409,-0.33303 -0.44403,-0.33302 -0.43478,-0.98982 z m 0.58279,-2.46069 q 0,0.80481 0.31453,1.17484 0.32377,0.37003 0.80481,0.37003 0.47178,0 0.79556,-0.37003 0.32377,-0.37003 0.32377,-1.15634 0,-0.74931 -0.33302,-1.12858 -0.33303,-0.37928 -0.80481,-0.37928 -0.45329,0 -0.77706,0.37928 -0.32378,0.37003 -0.32378,1.11008 z m 5.45235,1.49862 0.10176,0.61054 q -0.29602,0.0648 -0.52729,0.0648 -0.37928,0 -0.59205,-0.12025 -0.20351,-0.12026 -0.28677,-0.31453 -0.0833,-0.19426 -0.0833,-0.82331 v -2.34968 h -0.50879 v -0.53654 h 0.50879 v -1.01758 l 0.6938,-0.41628 v 1.43386 h 0.6938 v 0.53654 h -0.6938 v 2.39594 q 0,0.29602 0.0278,0.37927 0.037,0.0833 0.12026,0.13876 0.0833,0.0462 0.24052,0.0462 0.12025,0 0.30527,-0.0278 z m 0.67523,0.61979 v -5.65217 h 0.6938 v 2.0259 q 0.49029,-0.55505 1.23035,-0.55505 0.45328,0 0.78631,0.17577 0.33302,0.17576 0.48103,0.49954 0.14801,0.31452 0.14801,0.91581 v 2.5902 h -0.6938 v -2.5902 q 0,-0.52728 -0.23127,-0.75855 -0.22201,-0.24052 -0.63829,-0.24052 -0.30528,0 -0.5828,0.16651 -0.26827,0.15727 -0.38853,0.43479 -0.11101,0.26826 -0.11101,0.7493 v 2.23867 z"
       id="path27"
       inkscape:connector-curvature="0"
       style="fill:#000000;fill-rule:nonzero;stroke-width:1" />
    <path
       d="m 70.26064,249.45753 v 0 c 0,7.88349 -1.065095,14.27433 -2.378961,14.27433 H 51.111552 c -1.313866,0 -2.378965,6.39085 -2.378965,14.27434 v 0 c 0,-7.88349 -1.065096,-14.27434 -2.378962,-14.27434 H 29.583496 c -1.313863,0 -2.378961,-6.39084 -2.378961,-14.27433 z"
       id="path29"
       inkscape:connector-curvature="0"
       style="fill:#000000;fill-opacity:0;fill-rule:evenodd;stroke-width:1" />
    <path
       d="m 70.26064,249.45753 v 0 c 0,7.88349 -1.065095,14.27433 -2.378961,14.27433 H 51.111552 c -1.313866,0 -2.378965,6.39085 -2.378965,14.27434 v 0 c 0,-7.88349 -1.065096,-14.27434 -2.378962,-14.27434 H 29.583496 c -1.313863,0 -2.378961,-6.39084 -2.378961,-14.27433"
       id="path31"
       inkscape:connector-curvature="0"
       style="fill:#000000;fill-opacity:0;fill-rule:evenodd;stroke-width:1" />
    <path
       d="m 70.26064,249.45753 v 0 c 0,7.88349 -1.065095,14.27433 -2.378961,14.27433 H 51.111552 c -1.313866,0 -2.378965,6.39085 -2.378965,14.27434 v 0 c 0,-7.88349 -1.065096,-14.27434 -2.378962,-14.27434 H 29.583496 c -1.313863,0 -2.378961,-6.39084 -2.378961,-14.27433"
       id="path33"
       inkscape:connector-curvature="0"
       style="fill-rule:evenodd;stroke:#595959;stroke-width:1;stroke-linecap:butt;stroke-linejoin:round" />
    <path
       d="m 27.204534,271.42222 h 53.591702 v 16.26026 H 27.204534 Z"
       id="path35"
       inkscape:connector-curvature="0"
       style="fill:#000000;fill-opacity:0;fill-rule:evenodd;stroke-width:1" />
    <path
       d="m 33.143483,284.32879 v -5.65218 h 1.942647 q 0.656799,0 1.008326,0.0833 0.481036,0.11101 0.823312,0.40704 0.453284,0.37928 0.675301,0.97132 0.222017,0.58279 0.222017,1.3321 0,0.64755 -0.157262,1.14709 -0.148011,0.49028 -0.388529,0.82331 -0.231268,0.32378 -0.508789,0.50879 -0.277521,0.18501 -0.675301,0.28677 -0.388529,0.0925 -0.906568,0.0925 z m 0.749306,-0.66605 h 1.202591 q 0.555042,0 0.869566,-0.10176 0.323774,-0.11101 0.518039,-0.29602 0.25902,-0.26828 0.407031,-0.71231 0.148011,-0.45328 0.148011,-1.09158 0,-0.88807 -0.296022,-1.35985 -0.286772,-0.48104 -0.703053,-0.6383 -0.296023,-0.12026 -0.962073,-0.12026 h -1.18409 z m 4.865961,-4.18132 v -0.80481 h 0.693802 v 0.80481 z m 0,4.84737 v -4.08881 h 0.693802 v 4.08881 z M 43.176049,283.82 q -0.38853,0.33303 -0.749307,0.47178 -0.351526,0.12951 -0.758557,0.12951 -0.675301,0 -1.036079,-0.32377 -0.360777,-0.33302 -0.360777,-0.85106 0,-0.29603 0.12951,-0.5458 0.13876,-0.24976 0.360777,-0.39777 0.222017,-0.14802 0.499538,-0.23128 0.203515,-0.0462 0.619797,-0.10175 0.841814,-0.10176 1.239594,-0.24052 0,-0.13876 0,-0.17576 0,-0.42554 -0.194265,-0.6013 -0.26827,-0.23127 -0.79556,-0.23127 -0.481037,0 -0.721555,0.17577 -0.231267,0.16651 -0.342276,0.60129 l -0.675301,-0.0925 q 0.09251,-0.43478 0.305273,-0.70305 0.212766,-0.26827 0.610547,-0.40703 0.39778,-0.14801 0.925069,-0.14801 0.52729,0 0.851065,0.12026 0.333025,0.12026 0.481036,0.31453 0.157262,0.18501 0.222017,0.47178 0.02775,0.17576 0.02775,0.6383 v 0.92507 q 0,0.96207 0.04626,1.22109 0.04626,0.25902 0.175763,0.49029 h -0.721555 q -0.111008,-0.21277 -0.13876,-0.50879 z m -0.0555,-1.54487 q -0.379279,0.15727 -1.137836,0.25902 -0.425533,0.0648 -0.601296,0.14801 -0.175763,0.074 -0.277521,0.22202 -0.09251,0.14801 -0.09251,0.32378 0,0.27752 0.203516,0.46253 0.212766,0.18501 0.619796,0.18501 0.39778,0 0.712304,-0.17576 0.314524,-0.17576 0.462535,-0.48104 0.111009,-0.23126 0.111009,-0.6938 z m 1.770569,2.05366 v -4.08881 h 0.619797 v 0.57354 q 0.194265,-0.30527 0.508789,-0.48104 0.323774,-0.18501 0.730805,-0.18501 0.462535,0 0.749306,0.18501 0.286772,0.18502 0.407031,0.5273 0.490287,-0.71231 1.267346,-0.71231 0.610546,0 0.934321,0.34228 0.333025,0.33302 0.333025,1.02682 v 2.81222 h -0.693803 v -2.58095 q 0,-0.41628 -0.074,-0.59204 -0.06476,-0.18502 -0.240518,-0.29602 -0.175764,-0.11101 -0.416282,-0.11101 -0.425532,0 -0.712304,0.28677 -0.286771,0.28677 -0.286771,0.91582 v 2.37743 h -0.693803 v -2.65495 q 0,-0.46254 -0.175763,-0.69381 -0.166513,-0.23126 -0.545791,-0.23126 -0.296023,0 -0.545792,0.15726 -0.249769,0.14801 -0.360777,0.44403 -0.111008,0.29602 -0.111008,0.86032 v 2.11841 z m 9.376099,-1.3136 0.712304,0.0833 q -0.166513,0.62904 -0.629048,0.98057 -0.453284,0.34227 -1.165588,0.34227 -0.897318,0 -1.424608,-0.55504 -0.52729,-0.55504 -0.52729,-1.54486 0,-1.03608 0.52729,-1.60038 0.536541,-0.57354 1.387605,-0.57354 0.823312,0 1.341352,0.55504 0.518039,0.55504 0.518039,1.57262 0,0.0648 0,0.18501 h -3.052731 q 0.037,0.67531 0.379279,1.03608 0.342276,0.35153 0.851064,0.35153 0.388529,0 0.6568,-0.19426 0.26827,-0.20352 0.425532,-0.6383 z m -2.275672,-1.12859 h 2.284923 q -0.04626,-0.50878 -0.25902,-0.7678 -0.333025,-0.40703 -0.860315,-0.40703 -0.481036,0 -0.804811,0.32377 -0.323774,0.31452 -0.360777,0.85106 z m 5.378342,1.82239 0.101758,0.61055 q -0.296022,0.0648 -0.52729,0.0648 -0.379279,0 -0.592045,-0.12026 -0.203515,-0.12026 -0.286771,-0.31452 -0.08326,-0.19427 -0.08326,-0.82332 v -2.34967 H 55.47349 v -0.53654 h 0.508788 v -1.01758 l 0.693803,-0.41628 v 1.43386 h 0.693802 v 0.53654 h -0.693802 v 2.39593 q 0,0.29602 0.02775,0.37928 0.037,0.0833 0.120259,0.13876 0.08326,0.0462 0.240518,0.0462 0.120259,0 0.305273,-0.0278 z m 3.47818,-0.6938 0.712307,0.0833 q -0.166512,0.62904 -0.629047,0.98057 -0.453288,0.34227 -1.165589,0.34227 -0.897319,0 -1.424609,-0.55504 -0.52729,-0.55504 -0.52729,-1.54486 0,-1.03608 0.52729,-1.60038 0.536541,-0.57354 1.387607,-0.57354 0.823309,0 1.341348,0.55504 0.518039,0.55504 0.518039,1.57262 0,0.0648 0,0.18501 H 58.53539 q 0.037,0.67531 0.379278,1.03608 0.342275,0.35153 0.851066,0.35153 0.38853,0 0.656797,-0.19426 0.268273,-0.20352 0.425532,-0.6383 z m -2.275671,-1.12859 h 2.284925 q -0.04624,-0.50878 -0.25902,-0.7678 -0.333025,-0.40703 -0.860318,-0.40703 -0.481036,0 -0.804809,0.32377 -0.323775,0.31452 -0.360778,0.85106 z m 3.851979,2.44219 v -4.08881 h 0.629047 v 0.6198 q 0.240518,-0.43479 0.43478,-0.57355 0.203515,-0.13876 0.453287,-0.13876 0.351527,0 0.712301,0.22202 l -0.240518,0.6383 q -0.25902,-0.14801 -0.508785,-0.14801 -0.231271,0 -0.416285,0.13875 -0.17576,0.13877 -0.249766,0.37929 -0.120262,0.37002 -0.120262,0.8048 v 2.14617 z"
       id="path37"
       inkscape:connector-curvature="0"
       style="fill:#000000;fill-rule:nonzero;stroke-width:1" />
    <path
       d="M 80.796242,198.50904 H 48.965678"
       id="path39"
       inkscape:connector-curvature="0"
       style="fill:#000000;fill-opacity:0;fill-rule:evenodd;stroke-width:1" />
    <path
       d="M 80.796242,198.50904 H 48.965678"
       id="path41"
       inkscape:connector-curvature="0"
       style="fill-rule:evenodd;stroke:#595959;stroke-width:1;stroke-linecap:butt;stroke-linejoin:round;stroke-dasharray:3.99999999, 2.99999999" />
    <path
       d="M 80.796242,249.45753 H 48.965678"
       id="path43"
       inkscape:connector-curvature="0"
       style="fill:#000000;fill-opacity:0;fill-rule:evenodd;stroke-width:1" />
    <path
       d="M 80.796242,249.45753 H 48.965678"
       id="path45"
       inkscape:connector-curvature="0"
       style="fill-rule:evenodd;stroke:#595959;stroke-width:1;stroke-linecap:butt;stroke-linejoin:round;stroke-dasharray:3.99999999, 2.99999999" />
    <path
       d="m 161.63754,152.66131 h 313.60659 v 63.25088 H 161.63754 Z"
       id="path59"
       inkscape:connector-curvature="0"
       style="fill:#eeeeee;fill-rule:evenodd;stroke-width:1" />
    <path
       d="m 161.63754,152.66131 h 313.60659 v 63.25088 H 161.63754 Z"
       id="path61"
       inkscape:connector-curvature="0"
       style="fill-rule:evenodd;stroke:#595959;stroke-width:1;stroke-linecap:butt;stroke-linejoin:round" />
    <path
       d="m 438.34153,152.66131 h 15.81274 v 48.7621 h -15.81274 z"
       id="path63"
       inkscape:connector-curvature="0"
       style="fill:#ffffff;fill-rule:evenodd;stroke-width:1" />
    <path
       d="m 438.34153,152.66131 h 15.81274 v 48.7621 h -15.81274 z"
       id="path65"
       inkscape:connector-curvature="0"
       style="fill-rule:evenodd;stroke:#595959;stroke-width:1;stroke-linecap:butt;stroke-linejoin:round" />
    <path
       d="m 182.72739,152.66131 h 15.81274 v 48.7621 h -15.81274 z"
       id="path67"
       inkscape:connector-curvature="0"
       style="fill:#ffffff;fill-rule:evenodd;stroke-width:1" />
    <path
       d="m 182.72739,152.66131 h 15.81274 v 48.7621 h -15.81274 z"
       id="path69"
       inkscape:connector-curvature="0"
       style="fill-rule:evenodd;stroke:#595959;stroke-width:1;stroke-linecap:butt;stroke-linejoin:round" />
    <path
       d="m 212.3677,215.91219 h 23.7191 v 32.50186 h -23.7191 z"
       id="path71"
       inkscape:connector-curvature="0"
       style="fill:#999999;fill-rule:evenodd;stroke-width:1" />
    <path
       d="m 212.3677,215.91219 h 23.7191 v 32.50186 h -23.7191 z"
       id="path73"
       inkscape:connector-curvature="0"
       style="fill-rule:evenodd;stroke:#595959;stroke-width:1;stroke-linecap:butt;stroke-linejoin:round" />
    <path
       d="m 258.26126,215.91219 h 23.7191 v 32.50186 h -23.7191 z"
       id="path75"
       inkscape:connector-curvature="0"
       style="fill:#999999;fill-rule:evenodd;stroke-width:1" />
    <path
       d="m 258.26126,215.91219 h 23.7191 v 32.50186 h -23.7191 z"
       id="path77"
       inkscape:connector-curvature="0"
       style="fill-rule:evenodd;stroke:#595959;stroke-width:1;stroke-linecap:butt;stroke-linejoin:round" />
    <path
       d="m 306.5813,215.91219 h 23.71908 v 32.50186 H 306.5813 Z"
       id="path79"
       inkscape:connector-curvature="0"
       style="fill:#999999;fill-rule:evenodd;stroke-width:1" />
    <path
       d="m 306.5813,215.91219 h 23.71908 v 32.50186 H 306.5813 Z"
       id="path81"
       inkscape:connector-curvature="0"
       style="fill-rule:evenodd;stroke:#595959;stroke-width:1;stroke-linecap:butt;stroke-linejoin:round" />
    <path
       d="m 354.90052,215.91219 h 23.71912 v 32.50186 h -23.71912 z"
       id="path83"
       inkscape:connector-curvature="0"
       style="fill:#999999;fill-rule:evenodd;stroke-width:1" />
    <path
       d="m 354.90052,215.91219 h 23.71912 v 32.50186 h -23.71912 z"
       id="path85"
       inkscape:connector-curvature="0"
       style="fill-rule:evenodd;stroke:#595959;stroke-width:1;stroke-linecap:butt;stroke-linejoin:round" />
    <path
       d="m 403.21279,215.91219 h 23.71909 v 32.50186 h -23.71909 z"
       id="path87"
       inkscape:connector-curvature="0"
       style="fill:#999999;fill-rule:evenodd;stroke-width:1" />
    <path
       d="m 403.21279,215.91219 h 23.71909 v 32.50186 h -23.71909 z"
       id="path89"
       inkscape:connector-curvature="0"
       style="fill-rule:evenodd;stroke:#595959;stroke-width:1;stroke-linecap:butt;stroke-linejoin:round" />
    <path
       d="m 190.63375,201.42341 0.42888,-59.74524"
       id="path91"
       inkscape:connector-curvature="0"
       style="fill:#000000;fill-opacity:0;fill-rule:evenodd;stroke-width:1" />
    <path
       d="m 190.63375,201.42341 0.42888,-59.74524"
       id="path93"
       inkscape:connector-curvature="0"
       style="fill-rule:evenodd;stroke:#595959;stroke-width:1;stroke-linecap:butt;stroke-linejoin:round;stroke-dasharray:3.99999999, 2.99999999" />
    <path
       d="m 446.08939,201.42341 0.16785,-58.4213"
       id="path95"
       inkscape:connector-curvature="0"
       style="fill:#000000;fill-opacity:0;fill-rule:evenodd;stroke-width:1" />
    <path
       d="m 446.08939,201.42341 0.16785,-58.4213"
       id="path97"
       inkscape:connector-curvature="0"
       style="fill-rule:evenodd;stroke:#595959;stroke-width:1;stroke-linecap:butt;stroke-linejoin:round;stroke-dasharray:3.99999999, 2.99999999" />
    <path
       d="m 191.06262,141.68594 v 0 c 0,-8.51686 1.15069,-15.42113 2.57009,-15.42113 h 122.23802 c 1.41944,0 2.57011,-6.90427 2.57011,-15.42113 v 0 c 0,8.51686 1.15066,15.42113 2.57006,15.42113 h 122.23806 c 1.4194,0 2.57007,6.90427 2.57007,15.42113 z"
       id="path99"
       inkscape:connector-curvature="0"
       style="fill:#000000;fill-opacity:0;fill-rule:evenodd;stroke-width:1" />
    <path
       d="m 191.06262,141.68594 v 0 c 0,-8.51686 1.15069,-15.42113 2.57009,-15.42113 h 122.23802 c 1.41944,0 2.57011,-6.90427 2.57011,-15.42113 v 0 c 0,8.51686 1.15066,15.42113 2.57006,15.42113 h 122.23806 c 1.4194,0 2.57007,6.90427 2.57007,15.42113"
       id="path101"
       inkscape:connector-curvature="0"
       style="fill:#000000;fill-opacity:0;fill-rule:evenodd;stroke-width:1" />
    <path
       d="m 191.06262,141.68594 v 0 c 0,-8.51686 1.15069,-15.42113 2.57009,-15.42113 h 122.23802 c 1.41944,0 2.57011,-6.90427 2.57011,-15.42113 v 0 c 0,8.51686 1.15066,15.42113 2.57006,15.42113 h 122.23806 c 1.4194,0 2.57007,6.90427 2.57007,15.42113"
       id="path103"
       inkscape:connector-curvature="0"
       style="fill-rule:evenodd;stroke:#595959;stroke-width:1;stroke-linecap:butt;stroke-linejoin:round" />
    <path
       d="m 291.64498,94.583425 h 53.5917 v 16.260255 h -53.5917 z"
       id="path105"
       inkscape:connector-curvature="0"
       style="fill:#000000;fill-opacity:0;fill-rule:evenodd;stroke-width:1" />
    <path
       d="m 297.3249,105.67686 0.7123,-0.0648 q 0.0462,0.42553 0.23127,0.70305 0.18502,0.26827 0.56429,0.43478 0.38853,0.16652 0.86957,0.16652 0.42553,0 0.74931,-0.12951 0.33302,-0.12951 0.49028,-0.34228 0.15727,-0.22202 0.15727,-0.49029 0,-0.26827 -0.15727,-0.46253 -0.14801,-0.19427 -0.49954,-0.33303 -0.23126,-0.0925 -1.00832,-0.27752 -0.77706,-0.18501 -1.09158,-0.35152 -0.39778,-0.21277 -0.6013,-0.5273 -0.19426,-0.31452 -0.19426,-0.70305 0,-0.42553 0.24052,-0.79556 0.24052,-0.37003 0.70305,-0.56429 0.47178,-0.19427 1.04533,-0.19427 0.6198,0 1.10083,0.20352 0.48104,0.20351 0.74006,0.6013 0.25902,0.38853 0.27752,0.87881 l -0.71231,0.0555 q -0.0648,-0.53655 -0.39777,-0.80481 -0.33303,-0.27752 -0.98058,-0.27752 -0.6753,0 -0.98983,0.24976 -0.30527,0.24977 -0.30527,0.6013 0,0.30527 0.21277,0.49954 0.22201,0.19426 1.12858,0.40703 0.91582,0.20351 1.24885,0.35153 0.49954,0.23126 0.7308,0.58279 0.23127,0.34228 0.23127,0.80481 0,0.44403 -0.25902,0.85107 -0.24977,0.39777 -0.74005,0.61979 -0.48104,0.21277 -1.08234,0.21277 -0.7678,0 -1.28584,-0.22202 -0.51804,-0.22202 -0.81406,-0.66605 -0.29603,-0.45329 -0.31453,-1.01758 z m 8.2326,0.49954 0.7123,0.0832 q -0.16651,0.62905 -0.62904,0.98058 -0.45328,0.34228 -1.16559,0.34228 -0.89732,0 -1.42459,-0.55504 -0.52729,-0.55505 -0.52729,-1.54487 0,-1.03608 0.52729,-1.60037 0.53652,-0.57355 1.38759,-0.57355 0.82331,0 1.34135,0.55505 0.51804,0.55504 0.51804,1.57262 0,0.0647 0,0.18501 h -3.05273 q 0.037,0.6753 0.37927,1.03608 0.34228,0.35152 0.85107,0.35152 0.38853,0 0.6568,-0.19426 0.26827,-0.20352 0.42553,-0.6383 z m -2.27567,-1.12858 h 2.28492 q -0.0462,-0.5088 -0.25902,-0.76781 -0.33302,-0.40704 -0.86031,-0.40704 -0.48104,0 -0.80481,0.32378 -0.32378,0.31453 -0.36078,0.85107 z m 3.86123,4.0148 v -5.66143 h 0.63829 v 0.52729 q 0.22202,-0.31453 0.49954,-0.46254 0.28678,-0.15726 0.68455,-0.15726 0.51804,0 0.91583,0.26827 0.40703,0.26828 0.61054,0.75856 0.20352,0.49029 0.20352,1.08233 0,0.6198 -0.22202,1.12859 -0.22202,0.49954 -0.6568,0.7678 -0.42553,0.26828 -0.90657,0.26828 -0.34227,0 -0.61979,-0.14801 -0.27753,-0.14801 -0.45329,-0.37003 v 1.99815 z m 0.62905,-3.59853 q 0,0.79556 0.31452,1.17485 0.32377,0.37002 0.77706,0.37002 0.46253,0 0.79556,-0.38853 0.33302,-0.38852 0.33302,-1.21184 0,-0.77706 -0.32377,-1.16559 -0.32377,-0.39777 -0.76781,-0.39777 -0.44403,0 -0.78631,0.41627 -0.34227,0.41629 -0.34227,1.20259 z m 6.43292,1.51712 q -0.38853,0.33302 -0.74931,0.47179 -0.35153,0.12951 -0.75856,0.12951 -0.6753,0 -1.03608,-0.32378 -0.36077,-0.33302 -0.36077,-0.85106 0,-0.29603 0.12951,-0.54579 0.13876,-0.24977 0.36077,-0.39779 0.22202,-0.14801 0.49954,-0.23126 0.20352,-0.0462 0.6198,-0.10176 0.84181,-0.10176 1.23959,-0.24052 0,-0.13876 0,-0.17576 0,-0.42553 -0.19426,-0.6013 -0.26827,-0.23126 -0.79556,-0.23126 -0.48104,0 -0.72156,0.17576 -0.23126,0.16651 -0.34227,0.6013 l -0.67531,-0.0925 q 0.0925,-0.43479 0.30528,-0.70305 0.21276,-0.26828 0.61055,-0.40703 0.39777,-0.14802 0.92507,-0.14802 0.52728,0 0.85106,0.12026 0.33303,0.12026 0.48104,0.31452 0.15726,0.18502 0.22201,0.47179 0.0278,0.17576 0.0278,0.6383 v 0.92507 q 0,0.96207 0.0462,1.22109 0.0462,0.25902 0.17576,0.49029 h -0.72155 q -0.11101,-0.21277 -0.13876,-0.50879 z m -0.0555,-1.54486 q -0.37928,0.15725 -1.13784,0.25902 -0.42553,0.0648 -0.60129,0.14801 -0.17576,0.074 -0.27752,0.22201 -0.0925,0.14801 -0.0925,0.32377 0,0.27753 0.20352,0.46254 0.21276,0.18501 0.61979,0.18501 0.39779,0 0.71231,-0.17576 0.31452,-0.17576 0.46253,-0.48103 0.11101,-0.23127 0.11101,-0.69381 z m 1.76132,2.05365 v -4.08881 h 0.62905 v 0.6198 q 0.24051,-0.43478 0.43478,-0.57355 0.20352,-0.13876 0.45328,-0.13876 0.35153,0 0.71231,0.22202 l -0.24052,0.6383 q -0.25902,-0.14801 -0.50879,-0.14801 -0.23126,0 -0.41628,0.13876 -0.17576,0.13876 -0.24977,0.37927 -0.12026,0.37003 -0.12026,0.80482 V 107.49 Z m 5.31044,-0.50879 q -0.38852,0.33302 -0.7493,0.47179 -0.35153,0.12951 -0.75856,0.12951 -0.6753,0 -1.03608,-0.32378 -0.36077,-0.33302 -0.36077,-0.85106 0,-0.29603 0.1295,-0.54579 0.13876,-0.24977 0.36078,-0.39779 0.22202,-0.14801 0.49954,-0.23126 0.20351,-0.0462 0.6198,-0.10176 0.84181,-0.10176 1.23959,-0.24052 0,-0.13876 0,-0.17576 0,-0.42553 -0.19427,-0.6013 -0.26826,-0.23126 -0.79556,-0.23126 -0.48103,0 -0.72155,0.17576 -0.23127,0.16651 -0.34227,0.6013 l -0.67531,-0.0925 q 0.0925,-0.43479 0.30528,-0.70305 0.21276,-0.26828 0.61054,-0.40703 0.39778,-0.14802 0.92507,-0.14802 0.52729,0 0.85107,0.12026 0.33302,0.12026 0.48103,0.31452 0.15726,0.18502 0.22202,0.47179 0.0278,0.17576 0.0278,0.6383 v 0.92507 q 0,0.96207 0.0462,1.22109 0.0462,0.25902 0.17576,0.49029 h -0.72156 q -0.11101,-0.21277 -0.13876,-0.50879 z m -0.0555,-1.54486 q -0.37928,0.15725 -1.13784,0.25902 -0.42553,0.0648 -0.60129,0.14801 -0.17577,0.074 -0.27752,0.22201 -0.0925,0.14801 -0.0925,0.32377 0,0.27753 0.20352,0.46254 0.21276,0.18501 0.61979,0.18501 0.39778,0 0.71231,-0.17576 0.31452,-0.17576 0.46253,-0.48103 0.11101,-0.23127 0.11101,-0.69381 z m 3.28768,1.43385 0.10176,0.61055 q -0.29602,0.0648 -0.52729,0.0648 -0.37928,0 -0.59204,-0.12026 -0.20352,-0.12025 -0.28678,-0.31452 -0.0833,-0.19426 -0.0833,-0.82331 v -2.34968 h -0.50879 v -0.53654 h 0.50879 v -1.01758 l 0.6938,-0.41628 v 1.43386 h 0.6938 v 0.53654 h -0.6938 v 2.39593 q 0,0.29602 0.0278,0.37928 0.037,0.0833 0.12025,0.13876 0.0833,0.0462 0.24052,0.0462 0.12026,0 0.30528,-0.0278 z m 0.68445,-4.22757 v -0.80481 h 0.6938 v 0.80481 z m 0,4.84737 v -4.08881 h 0.6938 V 107.49 Z m 1.48484,-2.04441 q 0,-1.13783 0.6383,-1.68362 0.52729,-0.45329 1.28585,-0.45329 0.84181,0 1.37835,0.55505 0.53654,0.54578 0.53654,1.52636 0,0.78631 -0.24051,1.23959 -0.23127,0.45329 -0.68456,0.70306 -0.45328,0.24977 -0.98982,0.24977 -0.86032,0 -1.39686,-0.5458 -0.52729,-0.55504 -0.52729,-1.59112 z m 0.71231,0 q 0,0.78632 0.34227,1.17484 0.35153,0.38853 0.86957,0.38853 0.51804,0 0.86031,-0.38853 0.34228,-0.39778 0.34228,-1.20259 0,-0.75855 -0.35153,-1.14708 -0.34227,-0.38853 -0.85106,-0.38853 -0.51804,0 -0.86957,0.38853 -0.34227,0.38853 -0.34227,1.17483 z m 3.93523,2.04441 v -4.08881 h 0.62905 v 0.58279 q 0.44403,-0.6753 1.2951,-0.6753 0.37002,0 0.68455,0.12951 0.31452,0.12951 0.46253,0.35153 0.15726,0.21276 0.22202,0.50879 0.037,0.19426 0.037,0.6753 V 107.49 h -0.6938 v -2.48844 q 0,-0.42553 -0.0833,-0.62905 -0.0833,-0.21276 -0.28677,-0.33302 -0.20352,-0.12951 -0.48104,-0.12951 -0.44403,0 -0.7678,0.27752 -0.32378,0.27752 -0.32378,1.06383 V 107.49 Z"
       id="path107"
       inkscape:connector-curvature="0"
       style="fill:#000000;fill-rule:nonzero;stroke-width:1" />
    <path
       d="m 202.48552,217.55641 v 0 c 0,-4.30486 3.48978,-7.79463 7.79464,-7.79463 h 222.478 c 2.06724,0 4.04985,0.82122 5.51161,2.28299 1.46179,1.46177 2.28301,3.44437 2.28301,5.51164 v 31.17761 c 0,4.30484 -3.48979,7.79463 -7.79462,7.79463 h -222.478 v 0 c -4.30486,0 -7.79464,-3.48979 -7.79464,-7.79463 z"
       id="path109"
       inkscape:connector-curvature="0"
       style="fill:#000000;fill-opacity:0;fill-rule:evenodd;stroke-width:1" />
    <path
       d="m 202.48552,217.55641 v 0 c 0,-4.30486 3.48978,-7.79463 7.79464,-7.79463 h 222.478 c 2.06724,0 4.04985,0.82122 5.51161,2.28299 1.46179,1.46177 2.28301,3.44437 2.28301,5.51164 v 31.17761 c 0,4.30484 -3.48979,7.79463 -7.79462,7.79463 h -222.478 v 0 c -4.30486,0 -7.79464,-3.48979 -7.79464,-7.79463 z"
       id="path111"
       inkscape:connector-curvature="0"
       style="fill-rule:evenodd;stroke:#3c78d8;stroke-width:1;stroke-linecap:butt;stroke-linejoin:round" />
    <path
       d="m 432.64642,256.76328 24.59547,17.11802"
       id="path113"
       inkscape:connector-curvature="0"
       style="fill:#000000;fill-opacity:0;fill-rule:evenodd;stroke-width:1" />
    <path
       d="m 432.64642,256.76328 24.59547,17.11802"
       id="path115"
       inkscape:connector-curvature="0"
       style="fill-rule:evenodd;stroke:#3c78d8;stroke-width:1;stroke-linecap:butt;stroke-linejoin:round" />
    <path
       d="M 454.15428,269.93279 H 507.746 v 32.50186 h -53.59172 z"
       id="path117"
       inkscape:connector-curvature="0"
       style="fill:#000000;fill-opacity:0;fill-rule:evenodd;stroke-width:1" />
    <path
       d="m 460.08396,282.83935 v -5.65217 h 0.76781 l 2.96948,4.44034 v -4.44034 h 0.7123 v 5.65217 h -0.76781 l -2.96948,-4.44033 v 4.44033 z m 8.29799,0 v -0.60129 q -0.48104,0.6938 -1.2951,0.6938 -0.36078,0 -0.6753,-0.13876 -0.31453,-0.13876 -0.47179,-0.34227 -0.14801,-0.21277 -0.21276,-0.51804 -0.037,-0.20352 -0.037,-0.64755 v -2.53469 h 0.69381 v 2.26642 q 0,0.54579 0.037,0.7308 0.0648,0.27752 0.27752,0.43479 0.21277,0.14801 0.52729,0.14801 0.30528,0 0.5828,-0.15727 0.27752,-0.15725 0.38853,-0.43478 0.111,-0.27752 0.111,-0.79556 v -2.19241 h 0.6938 v 4.0888 z m 1.70581,0 v -4.0888 h 0.6198 v 0.57354 q 0.19426,-0.30527 0.50879,-0.48104 0.32377,-0.18501 0.7308,-0.18501 0.46254,0 0.74931,0.18501 0.28677,0.18502 0.40703,0.5273 0.49029,-0.71231 1.26735,-0.71231 0.61054,0 0.93432,0.34228 0.33302,0.33302 0.33302,1.02682 v 2.81221 h -0.6938 v -2.58094 q 0,-0.41628 -0.074,-0.59204 -0.0648,-0.18502 -0.24052,-0.29602 -0.17577,-0.11101 -0.41629,-0.11101 -0.42553,0 -0.7123,0.28677 -0.28677,0.28677 -0.28677,0.91582 v 2.37742 h -0.6938 v -2.65494 q 0,-0.46254 -0.17577,-0.69381 -0.16651,-0.23126 -0.54579,-0.23126 -0.29602,0 -0.54579,0.15726 -0.24977,0.14801 -0.36078,0.44403 -0.111,0.29602 -0.111,0.86032 v 2.1184 z m 7.21143,0 h -0.6383 v -5.65217 h 0.69381 v 2.01665 q 0.43478,-0.54579 1.11933,-0.54579 0.37928,0 0.7123,0.15726 0.34228,0.14801 0.55505,0.42554 0.22201,0.26826 0.34227,0.65679 0.12026,0.38853 0.12026,0.83257 0,1.05458 -0.51804,1.62812 -0.51804,0.57354 -1.24885,0.57354 -0.72155,0 -1.13783,-0.60129 z m 0,-2.07215 q 0,0.73081 0.19426,1.05458 0.33303,0.53654 0.88807,0.53654 0.45329,0 0.78631,-0.38853 0.33303,-0.39778 0.33303,-1.18409 0,-0.79556 -0.32378,-1.17484 -0.31452,-0.38853 -0.7678,-0.38853 -0.45329,0 -0.78632,0.39778 -0.32377,0.39778 -0.32377,1.14709 z m 6.55318,0.75856 0.71231,0.0833 q -0.16652,0.62905 -0.62905,0.98058 -0.45329,0.34227 -1.16559,0.34227 -0.89732,0 -1.42461,-0.55504 -0.52729,-0.55504 -0.52729,-1.54486 0,-1.03608 0.52729,-1.60038 0.53654,-0.57354 1.38761,-0.57354 0.82331,0 1.34135,0.55504 0.51804,0.55504 0.51804,1.57262 0,0.0648 0,0.18501 h -3.05274 q 0.037,0.67531 0.37929,1.03608 0.34227,0.35153 0.85106,0.35153 0.38853,0 0.6568,-0.19426 0.26827,-0.20352 0.42553,-0.6383 z m -2.27567,-1.12859 h 2.28492 q -0.0462,-0.50879 -0.25902,-0.7678 -0.33302,-0.40704 -0.86031,-0.40704 -0.48104,0 -0.80481,0.32378 -0.32378,0.31452 -0.36078,0.85106 z m 3.85198,2.44218 v -4.0888 h 0.62904 v 0.6198 q 0.24052,-0.43479 0.43478,-0.57355 0.20352,-0.13876 0.45329,-0.13876 0.35153,0 0.7123,0.22202 l -0.24052,0.6383 q -0.25902,-0.14801 -0.50878,-0.14801 -0.23127,0 -0.41629,0.13875 -0.17576,0.13877 -0.24976,0.37928 -0.12026,0.37003 -0.12026,0.80481 v 2.14616 z m 4.57027,-2.0444 q 0,-1.13784 0.6383,-1.68362 0.52729,-0.45329 1.28585,-0.45329 0.84181,0 1.37835,0.55504 0.53654,0.54579 0.53654,1.52637 0,0.78631 -0.24052,1.23959 -0.23126,0.45328 -0.68455,0.70306 -0.45328,0.24976 -0.98982,0.24976 -0.86032,0 -1.39686,-0.54579 -0.52729,-0.55504 -0.52729,-1.59112 z m 0.71231,0 q 0,0.78631 0.34227,1.17484 0.35153,0.38853 0.86957,0.38853 0.51804,0 0.86031,-0.38853 0.34228,-0.39778 0.34228,-1.20259 0,-0.75856 -0.35153,-1.14709 -0.34227,-0.38853 -0.85106,-0.38853 -0.51804,0 -0.86957,0.38853 -0.34227,0.38853 -0.34227,1.17484 z m 4.10175,2.0444 v -3.55226 h -0.61055 v -0.53654 h 0.61055 v -0.43478 q 0,-0.41629 0.074,-0.6198 0.10176,-0.26827 0.35153,-0.43478 0.24976,-0.16652 0.7123,-0.16652 0.28677,0 0.64755,0.0648 l -0.11101,0.61054 q -0.21276,-0.037 -0.40703,-0.037 -0.31452,0 -0.44403,0.13876 -0.12951,0.12951 -0.12951,0.49954 v 0.37928 h 0.79556 v 0.53654 h -0.79556 v 3.55226 z"
       id="path119"
       inkscape:connector-curvature="0"
       style="fill:#000000;fill-rule:nonzero;stroke-width:1" />
    <path
       d="m 460.16722,292.31207 v -3.55227 h -0.61054 v -0.53654 h 0.61054 v -0.43478 q 0,-0.41628 0.074,-0.6198 0.10175,-0.26827 0.35152,-0.43478 0.24977,-0.16651 0.7123,-0.16651 0.28678,0 0.64755,0.0648 l -0.111,0.61055 q -0.21277,-0.037 -0.40704,-0.037 -0.31452,0 -0.44403,0.13877 -0.12951,0.12951 -0.12951,0.49954 v 0.37927 h 0.79556 v 0.53654 h -0.79556 v 3.55227 z m 2.03508,-4.84737 v -0.8048 h 0.6938 v 0.8048 z m 0,4.84737 v -4.08881 h 0.6938 v 4.08881 z m 1.74383,0 v -4.08881 h 0.62905 v 0.5828 q 0.44403,-0.67531 1.2951,-0.67531 0.37002,0 0.68455,0.12951 0.31452,0.12951 0.46253,0.35153 0.15727,0.21277 0.22202,0.50879 0.037,0.19426 0.037,0.6753 v 2.51619 h -0.6938 v -2.48843 q 0,-0.42554 -0.0833,-0.62905 -0.0833,-0.21277 -0.28676,-0.33303 -0.20352,-0.12951 -0.48104,-0.12951 -0.44403,0 -0.76781,0.27752 -0.32377,0.27753 -0.32377,1.06383 v 2.23867 z m 4.25901,0.34228 0.6753,0.0925 q 0.0462,0.31452 0.24052,0.46253 0.25902,0.18502 0.70305,0.18502 0.48104,0 0.74006,-0.19427 0.26827,-0.18502 0.36078,-0.53654 0.0555,-0.21277 0.0462,-0.88807 -0.45329,0.53654 -1.12859,0.53654 -0.85106,0 -1.3136,-0.61055 -0.46253,-0.61054 -0.46253,-1.46161 0,-0.58279 0.21277,-1.07308 0.21276,-0.49953 0.61054,-0.7678 0.40703,-0.26828 0.95282,-0.26828 0.72155,0 1.19334,0.5828 v -0.49029 h 0.6383 v 3.53377 q 0,0.95282 -0.19426,1.3506 -0.19427,0.40703 -0.6198,0.6383 -0.41628,0.23127 -1.03608,0.23127 -0.7308,0 -1.18409,-0.33303 -0.44403,-0.33302 -0.43478,-0.98982 z m 0.58279,-2.46069 q 0,0.80481 0.31453,1.17484 0.32377,0.37003 0.80481,0.37003 0.47178,0 0.79556,-0.37003 0.32377,-0.37003 0.32377,-1.15633 0,-0.74931 -0.33302,-1.12859 -0.33303,-0.37928 -0.80481,-0.37928 -0.45329,0 -0.77706,0.37928 -0.32378,0.37003 -0.32378,1.11008 z m 6.7382,0.80481 0.7123,0.0833 q -0.16651,0.62905 -0.62905,0.98058 -0.45328,0.34227 -1.16558,0.34227 -0.89732,0 -1.42461,-0.55504 -0.52729,-0.55505 -0.52729,-1.54487 0,-1.03608 0.52729,-1.60037 0.53654,-0.57355 1.3876,-0.57355 0.82332,0 1.34136,0.55505 0.51804,0.55504 0.51804,1.57262 0,0.0648 0,0.18501 h -3.05273 q 0.037,0.6753 0.37927,1.03608 0.34228,0.35152 0.85107,0.35152 0.38852,0 0.6568,-0.19426 0.26827,-0.20351 0.42553,-0.6383 z m -2.27567,-1.12858 h 2.28492 q -0.0462,-0.50879 -0.25902,-0.76781 -0.33303,-0.40703 -0.86031,-0.40703 -0.48104,0 -0.80482,0.32377 -0.32377,0.31453 -0.36077,0.85107 z m 3.85197,2.44218 v -4.08881 h 0.62905 v 0.6198 q 0.24052,-0.43478 0.43478,-0.57354 0.20352,-0.13877 0.45329,-0.13877 0.35152,0 0.7123,0.22202 l -0.24052,0.6383 q -0.25901,-0.14801 -0.50879,-0.14801 -0.23126,0 -0.41628,0.13876 -0.17576,0.13876 -0.24977,0.37928 -0.12025,0.37003 -0.12025,0.80481 v 2.14616 z m 2.35948,-1.22109 0.68455,-0.11101 q 0.0648,0.41628 0.32377,0.6383 0.26827,0.21276 0.74006,0.21276 0.48103,0 0.7123,-0.19426 0.23127,-0.19426 0.23127,-0.45328 0,-0.23127 -0.21277,-0.37003 -0.13876,-0.0925 -0.70305,-0.23127 -0.76781,-0.19426 -1.06383,-0.33302 -0.28677,-0.14801 -0.44404,-0.38853 -0.14801,-0.24977 -0.14801,-0.55504 0,-0.26828 0.12027,-0.49954 0.12951,-0.24052 0.34227,-0.39778 0.16651,-0.11101 0.44403,-0.19427 0.27752,-0.0833 0.6013,-0.0833 0.48104,0 0.84181,0.13877 0.36078,0.13876 0.53654,0.37927 0.17577,0.23127 0.24052,0.62905 l -0.6753,0.0925 q -0.0462,-0.31453 -0.26827,-0.49029 -0.22202,-0.18501 -0.62905,-0.18501 -0.48104,0 -0.68455,0.15726 -0.20352,0.15726 -0.20352,0.37003 0,0.13876 0.0833,0.24977 0.0925,0.11101 0.26827,0.18501 0.10176,0.037 0.61055,0.17576 0.74005,0.19427 1.02683,0.32378 0.29602,0.12026 0.46253,0.36078 0.16651,0.24051 0.16651,0.59204 0,0.35153 -0.20351,0.6568 -0.20352,0.30527 -0.59205,0.47179 -0.37928,0.16651 -0.86031,0.16651 -0.79556,0 -1.21184,-0.33303 -0.41629,-0.33302 -0.53654,-0.98057 z"
       id="path121"
       inkscape:connector-curvature="0"
       style="fill:#000000;fill-rule:nonzero;stroke-width:1" />
    <path
       d="M 270.23347,265.98272 270.0097,248.41716"
       id="path123"
       inkscape:connector-curvature="0"
       style="fill:#000000;fill-opacity:0;fill-rule:evenodd;stroke-width:1" />
    <path
       d="M 270.23347,265.98272 270.0097,248.41716"
       id="path125"
       inkscape:connector-curvature="0"
       style="fill-rule:evenodd;stroke:#595959;stroke-width:1;stroke-linecap:butt;stroke-linejoin:round;stroke-dasharray:3.99999999, 2.99999999" />
    <path
       d="m 318.5527,265.98272 -0.22375,-17.56556"
       id="path127"
       inkscape:connector-curvature="0"
       style="fill:#000000;fill-opacity:0;fill-rule:evenodd;stroke-width:1" />
    <path
       d="m 318.5527,265.98272 -0.22375,-17.56556"
       id="path129"
       inkscape:connector-curvature="0"
       style="fill-rule:evenodd;stroke:#595959;stroke-width:1;stroke-linecap:butt;stroke-linejoin:round;stroke-dasharray:3.99999999, 2.99999999" />
    <path
       d="m 318.4424,265.98583 v 0 c 0,4.36655 -0.58994,7.90635 -1.31768,7.90635 h -21.46599 c -0.72774,0 -1.31769,3.5398 -1.31769,7.90637 v 0 c 0,-4.36657 -0.58993,-7.90637 -1.31766,-7.90637 h -21.46601 c -0.72772,0 -1.31767,-3.5398 -1.31767,-7.90635 z"
       id="path131"
       inkscape:connector-curvature="0"
       style="fill:#000000;fill-opacity:0;fill-rule:evenodd;stroke-width:1" />
    <path
       d="m 318.4424,265.98583 v 0 c 0,4.36655 -0.58994,7.90635 -1.31768,7.90635 h -21.46599 c -0.72774,0 -1.31769,3.5398 -1.31769,7.90637 v 0 c 0,-4.36657 -0.58993,-7.90637 -1.31766,-7.90637 h -21.46601 c -0.72772,0 -1.31767,-3.5398 -1.31767,-7.90635"
       id="path133"
       inkscape:connector-curvature="0"
       style="fill:#000000;fill-opacity:0;fill-rule:evenodd;stroke-width:1" />
    <path
       d="m 318.4424,265.98583 v 0 c 0,4.36655 -0.58994,7.90635 -1.31768,7.90635 h -21.46599 c -0.72774,0 -1.31769,3.5398 -1.31769,7.90637 v 0 c 0,-4.36657 -0.58993,-7.90637 -1.31766,-7.90637 h -21.46601 c -0.72772,0 -1.31767,-3.5398 -1.31767,-7.90635"
       id="path135"
       inkscape:connector-curvature="0"
       style="fill-rule:evenodd;stroke:#595959;stroke-width:1;stroke-linecap:butt;stroke-linejoin:round" />
    <path
       d="m 270.00971,276.9674 h 77.32945 v 16.26026 h -77.32945 z"
       id="path137"
       inkscape:connector-curvature="0"
       style="fill:#000000;fill-opacity:0;fill-rule:evenodd;stroke-width:1" />
    <path
       d="m 277.3825,289.87397 v -4.98613 h -1.85939 v -0.66605 h 4.47734 v 0.66605 h -1.86864 v 4.98613 z m 3.01,-4.84736 v -0.80482 h 0.6938 v 0.80482 z m 0,4.84736 v -4.08881 h 0.6938 v 4.08881 z m 1.74385,1.57262 v -5.66143 h 0.6383 v 0.52729 q 0.22202,-0.31452 0.49954,-0.46254 0.28677,-0.15725 0.68455,-0.15725 0.51804,0 0.91582,0.26826 0.40703,0.26828 0.61054,0.75856 0.20352,0.49029 0.20352,1.08233 0,0.6198 -0.22202,1.12859 -0.22202,0.49954 -0.6568,0.76781 -0.42553,0.26827 -0.90656,0.26827 -0.34228,0 -0.6198,-0.14801 -0.27753,-0.14801 -0.45329,-0.37003 v 1.99815 z m 0.62905,-3.59852 q 0,0.79556 0.31452,1.17484 0.32378,0.37003 0.77706,0.37003 0.46253,0 0.79556,-0.38853 0.33302,-0.38853 0.33302,-1.21185 0,-0.77706 -0.32377,-1.16559 -0.32377,-0.39777 -0.76781,-0.39777 -0.44403,0 -0.7863,0.41627 -0.34228,0.41629 -0.34228,1.2026 z m 8.60674,2.0259 v -0.51804 q -0.38853,0.61055 -1.14709,0.61055 -0.48103,0 -0.89731,-0.26827 -0.40703,-0.26827 -0.6383,-0.74931 -0.22202,-0.49029 -0.22202,-1.11934 0,-0.61054 0.20352,-1.11008 0.20351,-0.49954 0.61054,-0.75856 0.41629,-0.26826 0.91582,-0.26826 0.37003,0 0.6568,0.15725 0.29602,0.14802 0.47179,0.39779 v -2.02591 h 0.6938 v 5.65218 z m -2.19241,-2.04441 q 0,0.78632 0.33302,1.17485 0.33303,0.38853 0.78631,0.38853 0.45329,0 0.76781,-0.37003 0.31452,-0.37003 0.31452,-1.12859 0,-0.84181 -0.32377,-1.23034 -0.32377,-0.39778 -0.79556,-0.39778 -0.46254,0 -0.77706,0.37927 -0.30527,0.37003 -0.30527,1.18409 z m 3.93523,-2.80295 v -0.80482 h 0.6938 v 0.80482 z m 0,4.84736 v -4.08881 h 0.6938 v 4.08881 z m 1.46632,-1.22109 0.68456,-0.11101 q 0.0647,0.41628 0.32377,0.6383 0.26827,0.21277 0.74006,0.21277 0.48104,0 0.7123,-0.19427 0.23127,-0.19426 0.23127,-0.45328 0,-0.23127 -0.21277,-0.37003 -0.13876,-0.0925 -0.70305,-0.23127 -0.76781,-0.19426 -1.06383,-0.33303 -0.28677,-0.14801 -0.44403,-0.38853 -0.14801,-0.24976 -0.14801,-0.55504 0,-0.26827 0.12025,-0.49954 0.12951,-0.24051 0.34228,-0.39777 0.16651,-0.11101 0.44403,-0.19427 0.27753,-0.0833 0.6013,-0.0833 0.48103,0 0.84181,0.13875 0.36078,0.13877 0.53654,0.37928 0.17576,0.23127 0.24052,0.62905 l -0.6753,0.0925 q -0.0462,-0.31452 -0.26827,-0.49029 -0.22202,-0.18501 -0.62905,-0.18501 -0.48103,0 -0.68455,0.15726 -0.20351,0.15726 -0.20351,0.37003 0,0.13876 0.0833,0.24976 0.0925,0.11101 0.26827,0.18502 0.10176,0.037 0.61055,0.17576 0.74005,0.19427 1.02682,0.32378 0.29603,0.12026 0.46254,0.36078 0.16651,0.24051 0.16651,0.59204 0,0.35153 -0.20351,0.6568 -0.20352,0.30527 -0.59205,0.47179 -0.37927,0.16651 -0.86031,0.16651 -0.79556,0 -1.21185,-0.33303 -0.41627,-0.33302 -0.53654,-0.98057 z m 5.74007,0.60129 0.10175,0.61055 q -0.29602,0.0648 -0.52728,0.0648 -0.37929,0 -0.59205,-0.12027 -0.20352,-0.12025 -0.28677,-0.31452 -0.0833,-0.19426 -0.0833,-0.82331 v -2.34968 h -0.50879 v -0.53654 h 0.50879 v -1.01757 l 0.6938,-0.41629 v 1.43386 h 0.69381 v 0.53654 h -0.69381 v 2.39593 q 0,0.29602 0.0278,0.37928 0.037,0.0833 0.12025,0.13876 0.0833,0.0462 0.24052,0.0462 0.12027,0 0.30528,-0.0278 z m 3.34868,0.11101 q -0.38853,0.33303 -0.74931,0.47179 -0.35153,0.12951 -0.75856,0.12951 -0.6753,0 -1.03608,-0.32378 -0.36077,-0.33302 -0.36077,-0.85106 0,-0.29603 0.12951,-0.54579 0.13876,-0.24977 0.36077,-0.39778 0.22202,-0.14802 0.49954,-0.23127 0.20352,-0.0462 0.6198,-0.10176 0.84181,-0.10175 1.2396,-0.24052 0,-0.13876 0,-0.17576 0,-0.42553 -0.19427,-0.6013 -0.26827,-0.23126 -0.79556,-0.23126 -0.48104,0 -0.72156,0.17576 -0.23126,0.16651 -0.34227,0.6013 l -0.6753,-0.0925 q 0.0925,-0.43479 0.30527,-0.70305 0.21277,-0.26828 0.61055,-0.40703 0.39778,-0.14801 0.92507,-0.14801 0.52728,0 0.85106,0.12025 0.33303,0.12026 0.48104,0.31453 0.15726,0.18501 0.22202,0.47178 0.0278,0.17576 0.0278,0.6383 v 0.92507 q 0,0.96207 0.0462,1.22109 0.0462,0.25902 0.17576,0.49029 h -0.72155 q -0.11101,-0.21277 -0.13876,-0.50879 z m -0.0555,-1.54486 q -0.37928,0.15726 -1.13783,0.25902 -0.42554,0.0648 -0.6013,0.14801 -0.17576,0.074 -0.27752,0.22201 -0.0925,0.14801 -0.0925,0.32378 0,0.27752 0.20351,0.46253 0.21276,0.18501 0.61979,0.18501 0.39779,0 0.71231,-0.17576 0.31453,-0.17576 0.46254,-0.48103 0.111,-0.23127 0.111,-0.69381 z m 1.77057,2.05365 v -4.08881 h 0.62905 v 0.58279 q 0.44403,-0.67529 1.2951,-0.67529 0.37003,0 0.68455,0.12951 0.31452,0.1295 0.46254,0.35152 0.15725,0.21276 0.22201,0.50879 0.037,0.19426 0.037,0.6753 v 2.51619 h -0.69381 v -2.48844 q 0,-0.42553 -0.0833,-0.62905 -0.0833,-0.21276 -0.28678,-0.33302 -0.20351,-0.12951 -0.48103,-0.12951 -0.44404,0 -0.76781,0.27752 -0.32378,0.27752 -0.32378,1.06383 v 2.23867 z m 7.06197,-1.49861 0.68455,0.0925 q -0.111,0.70305 -0.57354,1.10083 -0.46253,0.39778 -1.13784,0.39778 -0.83256,0 -1.3506,-0.5458 -0.50879,-0.55504 -0.50879,-1.57261 0,-0.66605 0.22202,-1.16559 0.22202,-0.49954 0.66605,-0.74006 0.45328,-0.24976 0.98058,-0.24976 0.66605,0 1.09158,0.34227 0.42553,0.33302 0.54579,0.95282 l -0.6753,0.10176 q -0.10176,-0.41628 -0.35153,-0.6198 -0.24052,-0.21276 -0.58279,-0.21276 -0.52729,0 -0.86032,0.37928 -0.32377,0.37927 -0.32377,1.18409 0,0.83256 0.31452,1.20259 0.32378,0.37003 0.83256,0.37003 0.40703,0 0.67531,-0.24978 0.27752,-0.24976 0.35152,-0.7678 z m 4.07493,0.18501 0.71231,0.0833 q -0.16652,0.62904 -0.62905,0.98057 -0.45328,0.34228 -1.16559,0.34228 -0.89732,0 -1.42461,-0.55504 -0.52728,-0.55505 -0.52728,-1.54487 0,-1.03608 0.52728,-1.60037 0.53654,-0.57354 1.38761,-0.57354 0.82331,0 1.34135,0.55504 0.51804,0.55504 0.51804,1.57262 0,0.0648 0,0.18501 h -3.05273 q 0.037,0.6753 0.37928,1.03608 0.34227,0.35153 0.85106,0.35153 0.38853,0 0.6568,-0.19427 0.26827,-0.20352 0.42553,-0.6383 z m -2.27567,-1.12858 h 2.28492 q -0.0462,-0.50879 -0.25902,-0.76781 -0.33302,-0.40703 -0.86031,-0.40703 -0.48104,0 -0.80481,0.32377 -0.32377,0.31453 -0.36078,0.85107 z"
       id="path139"
       inkscape:connector-curvature="0"
       style="fill:#000000;fill-rule:nonzero;stroke-width:1" />
    <path
       d="m 379.05781,265.98583 v 0 c 0,4.36655 -0.58995,7.90635 -1.31768,7.90635 h -9.66239 c -0.72774,0 -1.31769,3.5398 -1.31769,7.90637 v 0 c 0,-4.36657 -0.58991,-7.90637 -1.31764,-7.90637 h -9.66243 c -0.72769,0 -1.31765,-3.5398 -1.31765,-7.90635 z"
       id="path141"
       inkscape:connector-curvature="0"
       style="fill:#000000;fill-opacity:0;fill-rule:evenodd;stroke-width:1" />
    <path
       d="m 379.05781,265.98583 v 0 c 0,4.36655 -0.58995,7.90635 -1.31768,7.90635 h -9.66239 c -0.72774,0 -1.31769,3.5398 -1.31769,7.90637 v 0 c 0,-4.36657 -0.58991,-7.90637 -1.31764,-7.90637 h -9.66243 c -0.72769,0 -1.31765,-3.5398 -1.31765,-7.90635"
       id="path143"
       inkscape:connector-curvature="0"
       style="fill:#000000;fill-opacity:0;fill-rule:evenodd;stroke-width:1" />
    <path
       d="m 379.05781,265.98583 v 0 c 0,4.36655 -0.58995,7.90635 -1.31768,7.90635 h -9.66239 c -0.72774,0 -1.31769,3.5398 -1.31769,7.90637 v 0 c 0,-4.36657 -0.58991,-7.90637 -1.31764,-7.90637 h -9.66243 c -0.72769,0 -1.31765,-3.5398 -1.31765,-7.90635"
       id="path145"
       inkscape:connector-curvature="0"
       style="fill-rule:evenodd;stroke:#595959;stroke-width:1;stroke-linecap:butt;stroke-linejoin:round" />
    <path
       d="m 354.88578,265.98272 -0.22375,-17.56556"
       id="path147"
       inkscape:connector-curvature="0"
       style="fill:#000000;fill-opacity:0;fill-rule:evenodd;stroke-width:1" />
    <path
       d="m 354.88578,265.98272 -0.22375,-17.56556"
       id="path149"
       inkscape:connector-curvature="0"
       style="fill-rule:evenodd;stroke:#595959;stroke-width:1;stroke-linecap:butt;stroke-linejoin:round;stroke-dasharray:3.99999999, 2.99999999" />
    <path
       d="m 379.2816,265.98272 -0.22379,-17.56556"
       id="path151"
       inkscape:connector-curvature="0"
       style="fill:#000000;fill-opacity:0;fill-rule:evenodd;stroke-width:1" />
    <path
       d="m 379.2816,265.98272 -0.22379,-17.56556"
       id="path153"
       inkscape:connector-curvature="0"
       style="fill-rule:evenodd;stroke:#595959;stroke-width:1;stroke-linecap:butt;stroke-linejoin:round;stroke-dasharray:3.99999999, 2.99999999" />
    <path
       d="m 345.23669,276.9674 h 53.59172 v 16.26026 h -53.59172 z"
       id="path155"
       inkscape:connector-curvature="0"
       style="fill:#000000;fill-opacity:0;fill-rule:evenodd;stroke-width:1" />
    <path
       d="m 351.17561,289.87397 v -5.65218 h 1.94265 q 0.6568,0 1.00832,0.0833 0.48104,0.11101 0.82332,0.40703 0.45328,0.37928 0.6753,0.97132 0.22201,0.5828 0.22201,1.3321 0,0.64755 -0.15726,1.14709 -0.14801,0.49029 -0.38853,0.82331 -0.23127,0.32378 -0.50879,0.50879 -0.27752,0.18501 -0.6753,0.28677 -0.38852,0.0925 -0.90656,0.0925 z m 0.74931,-0.66605 h 1.20259 q 0.55504,0 0.86956,-0.10176 0.32378,-0.11101 0.51804,-0.29602 0.25902,-0.26827 0.40703,-0.7123 0.14801,-0.45329 0.14801,-1.09159 0,-0.88806 -0.29602,-1.35985 -0.28677,-0.48104 -0.70305,-0.6383 -0.29602,-0.12026 -0.96207,-0.12026 h -1.18409 z m 4.86598,-4.18131 v -0.80482 h 0.6938 v 0.80482 z m 0,4.84736 v -4.08881 h 0.6938 v 4.08881 z m 4.41728,-0.50879 q -0.38853,0.33303 -0.74931,0.47179 -0.35153,0.12951 -0.75856,0.12951 -0.6753,0 -1.03608,-0.32378 -0.36077,-0.33302 -0.36077,-0.85106 0,-0.29603 0.12951,-0.54579 0.13876,-0.24977 0.36077,-0.39778 0.22202,-0.14802 0.49954,-0.23127 0.20352,-0.0462 0.6198,-0.10176 0.84181,-0.10175 1.23959,-0.24052 0,-0.13876 0,-0.17576 0,-0.42553 -0.19426,-0.6013 -0.26827,-0.23126 -0.79556,-0.23126 -0.48104,0 -0.72156,0.17576 -0.23126,0.16651 -0.34227,0.6013 l -0.67531,-0.0925 q 0.0925,-0.43479 0.30528,-0.70305 0.21276,-0.26828 0.61055,-0.40703 0.39777,-0.14801 0.92507,-0.14801 0.52728,0 0.85106,0.12025 0.33303,0.12026 0.48104,0.31453 0.15726,0.18501 0.22201,0.47178 0.0278,0.17576 0.0278,0.6383 v 0.92507 q 0,0.96207 0.0462,1.22109 0.0462,0.25902 0.17576,0.49029 h -0.72155 q -0.11101,-0.21277 -0.13876,-0.50879 z m -0.0555,-1.54486 q -0.37928,0.15726 -1.13784,0.25902 -0.42553,0.0648 -0.60129,0.14801 -0.17576,0.074 -0.27752,0.22201 -0.0925,0.14801 -0.0925,0.32378 0,0.27752 0.20352,0.46253 0.21276,0.18501 0.61979,0.18501 0.39779,0 0.71231,-0.17576 0.31452,-0.17576 0.46253,-0.48103 0.11101,-0.23127 0.11101,-0.69381 z m 1.77057,2.05365 v -4.08881 h 0.6198 v 0.57355 q 0.19426,-0.30528 0.50879,-0.48104 0.32377,-0.18501 0.7308,-0.18501 0.46253,0 0.74931,0.18501 0.28677,0.18501 0.40703,0.52729 0.49028,-0.7123 1.26734,-0.7123 0.61055,0 0.93433,0.34227 0.33302,0.33302 0.33302,1.02683 v 2.81221 h -0.6938 v -2.58095 q 0,-0.41628 -0.074,-0.59204 -0.0648,-0.18502 -0.24052,-0.29602 -0.17576,-0.11101 -0.41628,-0.11101 -0.42553,0 -0.7123,0.28677 -0.28677,0.28677 -0.28677,0.91582 v 2.37743 h -0.69381 v -2.65495 q 0,-0.46254 -0.17576,-0.6938 -0.16651,-0.23127 -0.54579,-0.23127 -0.29602,0 -0.54579,0.15726 -0.24977,0.14801 -0.36078,0.44404 -0.11101,0.29602 -0.11101,0.86031 v 2.11841 z m 9.37609,-1.3136 0.71231,0.0833 q -0.16652,0.62904 -0.62905,0.98057 -0.45329,0.34228 -1.16559,0.34228 -0.89732,0 -1.42461,-0.55504 -0.52729,-0.55505 -0.52729,-1.54487 0,-1.03608 0.52729,-1.60037 0.53654,-0.57354 1.38761,-0.57354 0.82331,0 1.34135,0.55504 0.51804,0.55504 0.51804,1.57262 0,0.0648 0,0.18501 h -3.05273 q 0.037,0.6753 0.37928,1.03608 0.34227,0.35153 0.85106,0.35153 0.38853,0 0.6568,-0.19427 0.26827,-0.20352 0.42553,-0.6383 z m -2.27567,-1.12858 h 2.28492 q -0.0462,-0.50879 -0.25902,-0.76781 -0.33302,-0.40703 -0.86031,-0.40703 -0.48104,0 -0.80481,0.32377 -0.32378,0.31453 -0.36078,0.85107 z m 5.37834,1.82238 0.10176,0.61055 q -0.29602,0.0648 -0.52729,0.0648 -0.37928,0 -0.59205,-0.12027 -0.20351,-0.12025 -0.28677,-0.31452 -0.0833,-0.19426 -0.0833,-0.82331 v -2.34968 h -0.50879 v -0.53654 h 0.50879 v -1.01757 l 0.6938,-0.41629 v 1.43386 h 0.6938 v 0.53654 h -0.6938 v 2.39593 q 0,0.29602 0.0278,0.37928 0.037,0.0833 0.12026,0.13876 0.0832,0.0462 0.24052,0.0462 0.12025,0 0.30527,-0.0278 z m 3.47819,-0.6938 0.7123,0.0833 q -0.16651,0.62904 -0.62904,0.98057 -0.45329,0.34228 -1.16559,0.34228 -0.89732,0 -1.42461,-0.55504 -0.52729,-0.55505 -0.52729,-1.54487 0,-1.03608 0.52729,-1.60037 0.53654,-0.57354 1.3876,-0.57354 0.82332,0 1.34136,0.55504 0.51804,0.55504 0.51804,1.57262 0,0.0648 0,0.18501 h -3.05273 q 0.037,0.6753 0.37927,1.03608 0.34228,0.35153 0.85107,0.35153 0.38853,0 0.6568,-0.19427 0.26827,-0.20352 0.42553,-0.6383 z m -2.27567,-1.12858 h 2.28492 q -0.0462,-0.50879 -0.25902,-0.76781 -0.33302,-0.40703 -0.86031,-0.40703 -0.48104,0 -0.80482,0.32377 -0.32377,0.31453 -0.36077,0.85107 z m 3.85197,2.44218 v -4.08881 h 0.62905 v 0.6198 q 0.24052,-0.43478 0.43479,-0.57355 0.20351,-0.13875 0.45328,-0.13875 0.35153,0 0.71231,0.22201 l -0.24052,0.6383 q -0.25902,-0.14801 -0.50879,-0.14801 -0.23127,0 -0.41628,0.13876 -0.17577,0.13876 -0.24977,0.37928 -0.12026,0.37002 -0.12026,0.80481 v 2.14616 z"
       id="path157"
       inkscape:connector-curvature="0"
       style="fill:#000000;fill-rule:nonzero;stroke-width:1" />
    <path
       d="M 488.42449,201.41719 H 445.83456"
       id="path159"
       inkscape:connector-curvature="0"
       style="fill:#000000;fill-opacity:0;fill-rule:evenodd;stroke-width:1" />
    <path
       d="M 488.42449,201.41719 H 445.83456"
       id="path161"
       inkscape:connector-curvature="0"
       style="fill-rule:evenodd;stroke:#595959;stroke-width:1;stroke-linecap:butt;stroke-linejoin:round;stroke-dasharray:3.99999999, 2.99999999" />
    <path
       d="M 488.42449,248.41405 H 425.41603"
       id="path163"
       inkscape:connector-curvature="0"
       style="fill:#000000;fill-opacity:0;fill-rule:evenodd;stroke-width:1" />
    <path
       d="M 488.42449,248.41405 H 425.41603"
       id="path165"
       inkscape:connector-curvature="0"
       style="fill-rule:evenodd;stroke:#595959;stroke-width:1;stroke-linecap:butt;stroke-linejoin:round;stroke-dasharray:3.99999999, 2.99999999" />
    <path
       d="m 491.50281,201.42341 v 0 c 7.88351,0 14.27434,1.06511 14.27434,2.37896 v 18.62552 c 0,1.31386 6.39086,2.37895 14.27433,2.37895 v 0 c -7.88347,0 -14.27433,1.06512 -14.27433,2.37897 v 18.62553 c 0,1.31385 -6.39083,2.37894 -14.27434,2.37894 z"
       id="path167"
       inkscape:connector-curvature="0"
       style="fill:#000000;fill-opacity:0;fill-rule:evenodd;stroke-width:1" />
    <path
       d="m 491.50281,201.42341 v 0 c 7.88351,0 14.27434,1.06511 14.27434,2.37896 v 18.62552 c 0,1.31386 6.39086,2.37895 14.27433,2.37895 v 0 c -7.88347,0 -14.27433,1.06512 -14.27433,2.37897 v 18.62553 c 0,1.31385 -6.39083,2.37894 -14.27434,2.37894"
       id="path169"
       inkscape:connector-curvature="0"
       style="fill:#000000;fill-opacity:0;fill-rule:evenodd;stroke-width:1" />
    <path
       d="m 491.50281,201.42341 v 0 c 7.88351,0 14.27434,1.06511 14.27434,2.37896 v 18.62552 c 0,1.31386 6.39086,2.37895 14.27433,2.37895 v 0 c -7.88347,0 -14.27433,1.06512 -14.27433,2.37897 v 18.62553 c 0,1.31385 -6.39083,2.37894 -14.27434,2.37894"
       id="path171"
       inkscape:connector-curvature="0"
       style="fill-rule:evenodd;stroke:#595959;stroke-width:1;stroke-linecap:butt;stroke-linejoin:round" />
    <path
       d="m 104.08566,213.65513 h 53.59171 v 16.26025 h -53.59171 z"
       id="path173"
       inkscape:connector-curvature="0"
       style="fill:#000000;fill-opacity:0;fill-rule:evenodd;stroke-width:1" />
    <path
       d="m 109.98761,226.5617 v -5.65217 h 0.74931 v 4.98612 h 2.78445 v 0.66605 z m 7.13597,-1.3136 0.71231,0.0833 q -0.16651,0.62905 -0.62905,0.98057 -0.45329,0.34228 -1.16559,0.34228 -0.89732,0 -1.42461,-0.55505 -0.52729,-0.55504 -0.52729,-1.54486 0,-1.03608 0.52729,-1.60037 0.53655,-0.57355 1.38761,-0.57355 0.82331,0 1.34135,0.55505 0.51804,0.55504 0.51804,1.57261 0,0.0648 0,0.18502 h -3.05273 q 0.037,0.6753 0.37928,1.03608 0.34227,0.35152 0.85106,0.35152 0.38853,0 0.6568,-0.19426 0.26827,-0.20351 0.42553,-0.6383 z m -2.27567,-1.12859 h 2.28493 q -0.0462,-0.50878 -0.25902,-0.7678 -0.33303,-0.40703 -0.86032,-0.40703 -0.48104,0 -0.80481,0.32377 -0.32378,0.31452 -0.36078,0.85106 z m 3.86123,2.44219 v -4.08881 h 0.62904 v 0.5828 q 0.44404,-0.67531 1.2951,-0.67531 0.37003,0 0.68455,0.12951 0.31453,0.12951 0.46254,0.35153 0.15726,0.21277 0.22202,0.50879 0.037,0.19426 0.037,0.6753 v 2.51619 h -0.6938 v -2.48844 q 0,-0.42553 -0.0833,-0.62904 -0.0833,-0.21277 -0.28677,-0.33303 -0.20351,-0.12951 -0.48104,-0.12951 -0.44403,0 -0.76781,0.27752 -0.32377,0.27752 -0.32377,1.06383 v 2.23867 z m 4.25901,0.34228 0.67529,0.0925 q 0.0462,0.31452 0.24052,0.46253 0.25902,0.18501 0.70306,0.18501 0.48103,0 0.74005,-0.19426 0.26828,-0.18502 0.36078,-0.53654 0.0555,-0.21277 0.0462,-0.88807 -0.45328,0.53654 -1.12858,0.53654 -0.85107,0 -1.3136,-0.61055 -0.46254,-0.61054 -0.46254,-1.46161 0,-0.58279 0.21277,-1.07308 0.21276,-0.49954 0.61055,-0.7678 0.40703,-0.26828 0.95282,-0.26828 0.72155,0 1.19334,0.5828 v -0.49029 h 0.63829 v 3.53377 q 0,0.95282 -0.19426,1.3506 -0.19427,0.40703 -0.6198,0.6383 -0.41628,0.23127 -1.03608,0.23127 -0.7308,0 -1.18409,-0.33303 -0.44403,-0.33302 -0.43478,-0.98982 z m 0.58279,-2.46069 q 0,0.80481 0.31452,1.17484 0.32378,0.37003 0.80482,0.37003 0.47178,0 0.79556,-0.37003 0.32377,-0.37003 0.32377,-1.15634 0,-0.74931 -0.33303,-1.12858 -0.33302,-0.37928 -0.80481,-0.37928 -0.45328,0 -0.77705,0.37928 -0.32378,0.37003 -0.32378,1.11008 z m 5.45235,1.49862 0.10176,0.61054 q -0.29603,0.0648 -0.5273,0.0648 -0.37927,0 -0.59204,-0.12025 -0.20352,-0.12026 -0.28677,-0.31453 -0.0833,-0.19426 -0.0833,-0.82331 v -2.34968 h -0.50879 v -0.53654 h 0.50879 v -1.01758 l 0.69381,-0.41628 v 1.43386 h 0.6938 v 0.53654 h -0.6938 v 2.39594 q 0,0.29602 0.0278,0.37927 0.037,0.0833 0.12026,0.13876 0.0833,0.0462 0.24052,0.0462 0.12026,0 0.30527,-0.0278 z m 0.67522,0.61979 v -5.65217 h 0.6938 v 2.0259 q 0.49029,-0.55505 1.23034,-0.55505 0.45329,0 0.78631,0.17577 0.33303,0.17576 0.48104,0.49954 0.14801,0.31452 0.14801,0.91581 v 2.5902 h -0.6938 v -2.5902 q 0,-0.52728 -0.23127,-0.75855 -0.22202,-0.24052 -0.6383,-0.24052 -0.30527,0 -0.58279,0.16651 -0.26827,0.15727 -0.38853,0.43479 -0.11101,0.26826 -0.11101,0.7493 v 2.23867 z"
       id="path175"
       inkscape:connector-curvature="0"
       style="fill:#000000;fill-rule:nonzero;stroke-width:1" />
    <path
       d="m 112.72626,280.0263 h 232.51042 v 27.1315 H 112.72626 Z"
       id="path177"
       inkscape:connector-curvature="0"
       style="fill:#000000;fill-opacity:0;fill-rule:evenodd;stroke-width:1" />
    <path
       d="m 118.70221,292.93287 v -5.65218 h 3.81129 v 0.66605 h -3.06199 v 1.75763 h 2.6457 v 0.66605 h -2.6457 v 2.56245 z m 4.69979,-4.84737 v -0.80481 h 0.6938 v 0.80481 z m 0,4.84737 v -4.08881 h 0.6938 v 4.08881 z m 1.73459,0 v -4.08881 h 0.62905 v 0.61979 q 0.24052,-0.43478 0.43479,-0.57354 0.20351,-0.13876 0.45328,-0.13876 0.35152,0 0.7123,0.22202 l -0.24051,0.63829 q -0.25902,-0.14801 -0.50879,-0.14801 -0.23127,0 -0.41628,0.13876 -0.17577,0.13876 -0.24978,0.37928 -0.12025,0.37003 -0.12025,0.80481 v 2.14617 z m 2.35945,-1.2211 0.68455,-0.11101 q 0.0648,0.41628 0.32377,0.6383 0.26828,0.21277 0.74006,0.21277 0.48104,0 0.71231,-0.19427 0.23126,-0.19426 0.23126,-0.45328 0,-0.23127 -0.21276,-0.37003 -0.13877,-0.0925 -0.70306,-0.23127 -0.76781,-0.19426 -1.06383,-0.33302 -0.28677,-0.14801 -0.44403,-0.38853 -0.14801,-0.24977 -0.14801,-0.55504 0,-0.26827 0.12026,-0.49954 0.12951,-0.24052 0.34227,-0.39778 0.16651,-0.11101 0.44403,-0.19427 0.27753,-0.0832 0.6013,-0.0832 0.48104,0 0.84181,0.13876 0.36078,0.13876 0.53654,0.37928 0.17577,0.23126 0.24052,0.62905 l -0.6753,0.0925 q -0.0462,-0.31452 -0.26827,-0.49029 -0.22202,-0.18501 -0.62905,-0.18501 -0.48103,0 -0.68455,0.15726 -0.20351,0.15726 -0.20351,0.37003 0,0.13876 0.0833,0.24977 0.0925,0.11101 0.26826,0.18501 0.10176,0.037 0.61055,0.17577 0.74005,0.19426 1.02683,0.32377 0.29602,0.12026 0.46253,0.36078 0.16652,0.24052 0.16652,0.59204 0,0.35153 -0.20352,0.6568 -0.20351,0.30528 -0.59204,0.47179 -0.37928,0.16651 -0.86032,0.16651 -0.79556,0 -1.21184,-0.33302 -0.41628,-0.33303 -0.53654,-0.98058 z m 5.74006,0.6013 0.10175,0.61054 q -0.29602,0.0648 -0.52728,0.0648 -0.37929,0 -0.59205,-0.12026 -0.20352,-0.12026 -0.28677,-0.31453 -0.0833,-0.19426 -0.0833,-0.82331 v -2.34967 h -0.50879 v -0.53654 h 0.50879 v -1.01758 l 0.6938,-0.41629 v 1.43387 h 0.69381 v 0.53654 h -0.69381 v 2.39593 q 0,0.29602 0.0278,0.37928 0.037,0.0833 0.12025,0.13875 0.0833,0.0462 0.24052,0.0462 0.12027,0 0.30528,-0.0278 z m 3.03406,0.6198 v -3.55227 h -0.61055 v -0.53654 h 0.61055 v -0.43479 q 0,-0.41628 0.074,-0.61979 0.10176,-0.26828 0.35152,-0.43479 0.24977,-0.16651 0.71231,-0.16651 0.28677,0 0.64755,0.0648 l -0.11101,0.61054 q -0.21277,-0.037 -0.40703,-0.037 -0.31452,0 -0.44403,0.13876 -0.12951,0.12951 -0.12951,0.49953 v 0.37929 h 0.79556 v 0.53654 h -0.79556 v 3.55227 z m 2.03508,-4.84737 v -0.80481 h 0.6938 v 0.80481 z m 0,4.84737 v -4.08881 h 0.6938 v 4.08881 z m 1.74384,0 v -4.08881 h 0.62905 v 0.58279 q 0.44403,-0.6753 1.2951,-0.6753 0.37003,0 0.68455,0.12951 0.31452,0.12951 0.46253,0.35153 0.15727,0.21276 0.22202,0.50878 0.037,0.19427 0.037,0.67531 v 2.51619 h -0.6938 v -2.48845 q 0,-0.42553 -0.0833,-0.62904 -0.0832,-0.21277 -0.28676,-0.33303 -0.20352,-0.12951 -0.48104,-0.12951 -0.44403,0 -0.76781,0.27752 -0.32377,0.27752 -0.32377,1.06384 v 2.23867 z m 4.25901,0.34227 0.6753,0.0925 q 0.0462,0.31452 0.24052,0.46253 0.25902,0.18501 0.70305,0.18501 0.48104,0 0.74006,-0.19426 0.26827,-0.18501 0.36078,-0.53654 0.0555,-0.21277 0.0462,-0.88807 -0.45328,0.53655 -1.12859,0.53655 -0.85106,0 -1.3136,-0.61055 -0.46253,-0.61055 -0.46253,-1.46161 0,-0.5828 0.21277,-1.07308 0.21276,-0.49954 0.61054,-0.76781 0.40703,-0.26827 0.95282,-0.26827 0.72156,0 1.19334,0.58279 v -0.49028 h 0.6383 v 3.53376 q 0,0.95282 -0.19426,1.35061 -0.19427,0.40703 -0.6198,0.63829 -0.41628,0.23127 -1.03608,0.23127 -0.7308,0 -1.18409,-0.33302 -0.44403,-0.33303 -0.43478,-0.98983 z m 0.58279,-2.46069 q 0,0.80482 0.31453,1.17484 0.32377,0.37003 0.80481,0.37003 0.47178,0 0.79556,-0.37003 0.32377,-0.37002 0.32377,-1.15634 0,-0.7493 -0.33302,-1.12858 -0.33303,-0.37928 -0.80481,-0.37928 -0.45329,0 -0.77706,0.37928 -0.32378,0.37003 -0.32378,1.11008 z m 6.7382,0.80482 0.7123,0.0833 q -0.16651,0.62905 -0.62905,0.98057 -0.45328,0.34228 -1.16558,0.34228 -0.89732,0 -1.42461,-0.55504 -0.52729,-0.55504 -0.52729,-1.54487 0,-1.03608 0.52729,-1.60037 0.53654,-0.57354 1.3876,-0.57354 0.82332,0 1.34136,0.55504 0.51804,0.55504 0.51804,1.57262 0,0.0648 0,0.18501 h -3.05273 q 0.037,0.6753 0.37927,1.03608 0.34228,0.35153 0.85107,0.35153 0.38853,0 0.6568,-0.19427 0.26827,-0.20351 0.42553,-0.63829 z m -2.27567,-1.12859 h 2.28492 q -0.0462,-0.50879 -0.25902,-0.76781 -0.33303,-0.40703 -0.86031,-0.40703 -0.48104,0 -0.80482,0.32378 -0.32377,0.31452 -0.36077,0.85106 z m 3.85197,2.44219 v -4.08881 h 0.62905 v 0.61979 q 0.24052,-0.43478 0.43479,-0.57354 0.20351,-0.13876 0.45328,-0.13876 0.35152,0 0.7123,0.22202 l -0.24051,0.63829 q -0.25902,-0.14801 -0.5088,-0.14801 -0.23126,0 -0.41627,0.13876 -0.17577,0.13876 -0.24978,0.37928 -0.12025,0.37003 -0.12025,0.80481 v 2.14617 z m 4.57029,-2.04441 q 0,-1.13784 0.63829,-1.68363 0.52729,-0.45328 1.28585,-0.45328 0.84181,0 1.37835,0.55504 0.53654,0.54579 0.53654,1.52636 0,0.78632 -0.24052,1.2396 -0.23126,0.45328 -0.68455,0.70305 -0.45328,0.24977 -0.98982,0.24977 -0.86032,0 -1.39686,-0.54579 -0.52728,-0.55504 -0.52728,-1.59112 z m 0.7123,0 q 0,0.78631 0.34228,1.17484 0.35152,0.38853 0.86956,0.38853 0.51804,0 0.86031,-0.38853 0.34228,-0.39778 0.34228,-1.20259 0,-0.75856 -0.35152,-1.14709 -0.34228,-0.38853 -0.85107,-0.38853 -0.51804,0 -0.86956,0.38853 -0.34228,0.38853 -0.34228,1.17484 z m 4.10174,2.04441 v -3.55227 h -0.61054 v -0.53654 h 0.61054 v -0.43479 q 0,-0.41628 0.074,-0.61979 0.10176,-0.26828 0.35152,-0.43479 0.24978,-0.16651 0.71231,-0.16651 0.28677,0 0.64755,0.0648 l -0.11101,0.61054 q -0.21277,-0.037 -0.40703,-0.037 -0.31452,0 -0.44403,0.13876 -0.12951,0.12951 -0.12951,0.49953 v 0.37929 h 0.79556 v 0.53654 h -0.79556 v 3.55227 z m 2.04972,0 v -3.55227 h -0.61055 v -0.53654 h 0.61055 v -0.43479 q 0,-0.41628 0.074,-0.61979 0.10176,-0.26828 0.35152,-0.43479 0.24977,-0.16651 0.71231,-0.16651 0.28677,0 0.64755,0.0648 l -0.11101,0.61054 q -0.21277,-0.037 -0.40703,-0.037 -0.31452,0 -0.44403,0.13876 -0.12951,0.12951 -0.12951,0.49953 v 0.37929 h 0.79556 v 0.53654 h -0.79556 v 3.55227 z m 1.74829,-1.2211 0.68455,-0.11101 q 0.0648,0.41628 0.32378,0.6383 0.26827,0.21277 0.74006,0.21277 0.48103,0 0.7123,-0.19427 0.23127,-0.19426 0.23127,-0.45328 0,-0.23127 -0.21277,-0.37003 -0.13876,-0.0925 -0.70306,-0.23127 -0.7678,-0.19426 -1.06382,-0.33302 -0.28678,-0.14801 -0.44404,-0.38853 -0.14801,-0.24977 -0.14801,-0.55504 0,-0.26827 0.12026,-0.49954 0.12951,-0.24052 0.34228,-0.39778 0.16651,-0.11101 0.44403,-0.19427 0.27752,-0.0832 0.60129,-0.0832 0.48104,0 0.84182,0.13876 0.36077,0.13876 0.53654,0.37928 0.17576,0.23126 0.24052,0.62905 l -0.6753,0.0925 q -0.0462,-0.31452 -0.26827,-0.49029 -0.22202,-0.18501 -0.62905,-0.18501 -0.48104,0 -0.68455,0.15726 -0.20352,0.15726 -0.20352,0.37003 0,0.13876 0.0833,0.24977 0.0925,0.11101 0.26827,0.18501 0.10175,0.037 0.61055,0.17577 0.74005,0.19426 1.02682,0.32377 0.29602,0.12026 0.46254,0.36078 0.16651,0.24052 0.16651,0.59204 0,0.35153 -0.20352,0.6568 -0.20351,0.30528 -0.59204,0.47179 -0.37928,0.16651 -0.86031,0.16651 -0.79556,0 -1.21185,-0.33302 -0.41628,-0.33303 -0.53654,-0.98058 z m 7.02591,-0.0925 0.71231,0.0833 q -0.16652,0.62905 -0.62905,0.98057 -0.45329,0.34228 -1.16559,0.34228 -0.89732,0 -1.42461,-0.55504 -0.52729,-0.55504 -0.52729,-1.54487 0,-1.03608 0.52729,-1.60037 0.53654,-0.57354 1.38761,-0.57354 0.82331,0 1.34135,0.55504 0.51803,0.55504 0.51803,1.57262 0,0.0648 0,0.18501 h -3.05273 q 0.037,0.6753 0.37929,1.03608 0.34227,0.35153 0.85106,0.35153 0.38853,0 0.6568,-0.19427 0.26827,-0.20351 0.42553,-0.63829 z m -2.27567,-1.12859 h 2.28492 q -0.0462,-0.50879 -0.25902,-0.76781 -0.33302,-0.40703 -0.86032,-0.40703 -0.48103,0 -0.8048,0.32378 -0.32378,0.31452 -0.36078,0.85106 z m 5.37834,1.82239 0.10176,0.61054 q -0.29602,0.0648 -0.52729,0.0648 -0.37928,0 -0.59205,-0.12026 -0.20351,-0.12026 -0.28677,-0.31453 -0.0833,-0.19426 -0.0833,-0.82331 v -2.34967 h -0.50878 v -0.53654 h 0.50878 v -1.01758 l 0.69381,-0.41629 v 1.43387 h 0.6938 v 0.53654 h -0.6938 v 2.39593 q 0,0.29602 0.0278,0.37928 0.037,0.0833 0.12026,0.13875 0.0832,0.0462 0.24052,0.0462 0.12025,0 0.30527,-0.0278 z m 2.8768,-4.22757 v -0.80481 h 0.69381 v 0.80481 z m 0,4.84737 v -4.08881 h 0.69381 v 4.08881 z m 1.74385,0 v -4.08881 h 0.62905 v 0.58279 q 0.44403,-0.6753 1.2951,-0.6753 0.37003,0 0.68455,0.12951 0.31452,0.12951 0.46253,0.35153 0.15726,0.21276 0.22202,0.50878 0.037,0.19427 0.037,0.67531 v 2.51619 h -0.6938 v -2.48845 q 0,-0.42553 -0.0833,-0.62904 -0.0833,-0.21277 -0.28678,-0.33303 -0.20351,-0.12951 -0.48104,-0.12951 -0.44403,0 -0.7678,0.27752 -0.32378,0.27752 -0.32378,1.06384 v 2.23867 z m 8.09797,-0.6198 0.10176,0.61054 q -0.29602,0.0648 -0.52729,0.0648 -0.37927,0 -0.59204,-0.12026 -0.20352,-0.12026 -0.28677,-0.31453 -0.0833,-0.19426 -0.0833,-0.82331 v -2.34967 h -0.50879 v -0.53654 h 0.50879 v -1.01758 l 0.6938,-0.41629 v 1.43387 h 0.6938 v 0.53654 h -0.6938 v 2.39593 q 0,0.29602 0.0278,0.37928 0.037,0.0833 0.12026,0.13875 0.0833,0.0462 0.24052,0.0462 0.12026,0 0.30527,-0.0278 z m 0.67522,0.6198 v -5.65218 h 0.6938 v 2.0259 q 0.49029,-0.55504 1.23034,-0.55504 0.45329,0 0.78631,0.17576 0.33303,0.17577 0.48104,0.49954 0.14801,0.31452 0.14801,0.91582 v 2.5902 h -0.6938 v -2.5902 q 0,-0.52729 -0.23127,-0.75856 -0.22202,-0.24052 -0.6383,-0.24052 -0.30527,0 -0.58279,0.16652 -0.26827,0.15726 -0.38853,0.43478 -0.11101,0.26827 -0.11101,0.74931 v 2.23867 z m 7.19148,-1.3136 0.7123,0.0833 q -0.16651,0.62905 -0.62905,0.98057 -0.45328,0.34228 -1.16559,0.34228 -0.89731,0 -1.42461,-0.55504 -0.52728,-0.55504 -0.52728,-1.54487 0,-1.03608 0.52728,-1.60037 0.53655,-0.57354 1.38761,-0.57354 0.82331,0 1.34135,0.55504 0.51804,0.55504 0.51804,1.57262 0,0.0648 0,0.18501 h -3.05273 q 0.037,0.6753 0.37928,1.03608 0.34228,0.35153 0.85106,0.35153 0.38853,0 0.65681,-0.19427 0.26826,-0.20351 0.42553,-0.63829 z m -2.27567,-1.12859 h 2.28492 q -0.0462,-0.50879 -0.25902,-0.76781 -0.33303,-0.40703 -0.86032,-0.40703 -0.48103,0 -0.80481,0.32378 -0.32377,0.31452 -0.36077,0.85106 z m 6.05356,2.44219 v -4.08881 h 0.62905 v 0.58279 q 0.44404,-0.6753 1.2951,-0.6753 0.37003,0 0.68455,0.12951 0.31453,0.12951 0.46254,0.35153 0.15726,0.21276 0.22201,0.50878 0.037,0.19427 0.037,0.67531 v 2.51619 h -0.6938 v -2.48845 q 0,-0.42553 -0.0833,-0.62904 -0.0833,-0.21277 -0.28677,-0.33303 -0.20352,-0.12951 -0.48104,-0.12951 -0.44403,0 -0.76781,0.27752 -0.32377,0.27752 -0.32377,1.06384 v 2.23867 z m 7.19148,-1.3136 0.71231,0.0833 q -0.16651,0.62905 -0.62905,0.98057 -0.45328,0.34228 -1.16559,0.34228 -0.89732,0 -1.4246,-0.55504 -0.5273,-0.55504 -0.5273,-1.54487 0,-1.03608 0.5273,-1.60037 0.53654,-0.57354 1.3876,-0.57354 0.82331,0 1.34135,0.55504 0.51804,0.55504 0.51804,1.57262 0,0.0648 0,0.18501 h -3.05273 q 0.037,0.6753 0.37928,1.03608 0.34227,0.35153 0.85106,0.35153 0.38853,0 0.6568,-0.19427 0.26827,-0.20351 0.42553,-0.63829 z m -2.27567,-1.12859 h 2.28493 q -0.0462,-0.50879 -0.25902,-0.76781 -0.33303,-0.40703 -0.86032,-0.40703 -0.48104,0 -0.80481,0.32378 -0.32378,0.31452 -0.36078,0.85106 z m 3.39869,2.44219 1.49862,-2.12767 -1.38761,-1.96114 h 0.86957 l 0.62904,0.95282 q 0.17577,0.27752 0.28678,0.46253 0.16651,-0.25902 0.30527,-0.45328 l 0.69381,-0.96207 h 0.83256 l -1.41536,1.92414 1.51711,2.16467 h -0.85106 l -0.84181,-1.26735 -0.22202,-0.35153 -1.07308,1.61888 z m 5.92508,-0.6198 0.10176,0.61054 q -0.29603,0.0648 -0.52729,0.0648 -0.37928,0 -0.59205,-0.12026 -0.20351,-0.12026 -0.28677,-0.31453 -0.0832,-0.19426 -0.0832,-0.82331 v -2.34967 h -0.5088 v -0.53654 h 0.5088 v -1.01758 l 0.6938,-0.41629 v 1.43387 h 0.6938 v 0.53654 h -0.6938 v 2.39593 q 0,0.29602 0.0278,0.37928 0.037,0.0833 0.12026,0.13875 0.0833,0.0462 0.24052,0.0462 0.12026,0 0.30527,-0.0278 z m 2.59003,-0.6013 0.68455,-0.11101 q 0.0648,0.41628 0.32378,0.6383 0.26827,0.21277 0.74006,0.21277 0.48103,0 0.7123,-0.19427 0.23127,-0.19426 0.23127,-0.45328 0,-0.23127 -0.21277,-0.37003 -0.13876,-0.0925 -0.70306,-0.23127 -0.7678,-0.19426 -1.06382,-0.33302 -0.28678,-0.14801 -0.44404,-0.38853 -0.14801,-0.24977 -0.14801,-0.55504 0,-0.26827 0.12026,-0.49954 0.12951,-0.24052 0.34228,-0.39778 0.16651,-0.11101 0.44403,-0.19427 0.27752,-0.0832 0.60129,-0.0832 0.48104,0 0.84182,0.13876 0.36077,0.13876 0.53654,0.37928 0.17576,0.23126 0.24052,0.62905 l -0.6753,0.0925 q -0.0462,-0.31452 -0.26827,-0.49029 -0.22202,-0.18501 -0.62905,-0.18501 -0.48104,0 -0.68455,0.15726 -0.20352,0.15726 -0.20352,0.37003 0,0.13876 0.0833,0.24977 0.0925,0.11101 0.26827,0.18501 0.10175,0.037 0.61055,0.17577 0.74005,0.19426 1.02682,0.32377 0.29602,0.12026 0.46254,0.36078 0.16651,0.24052 0.16651,0.59204 0,0.35153 -0.20352,0.6568 -0.20351,0.30528 -0.59204,0.47179 -0.37928,0.16651 -0.86031,0.16651 -0.79556,0 -1.21185,-0.33302 -0.41628,-0.33303 -0.53654,-0.98058 z m 4.2137,1.2211 v -5.65218 h 0.6938 v 5.65218 z m 1.77159,-4.84737 v -0.80481 h 0.6938 v 0.80481 z m 0,4.84737 v -4.08881 h 0.6938 v 4.08881 z m 4.3988,0 v -0.51804 q -0.38853,0.61054 -1.14708,0.61054 -0.48104,0 -0.89732,-0.26827 -0.40704,-0.26827 -0.6383,-0.7493 -0.22202,-0.49029 -0.22202,-1.11934 0,-0.61055 0.20352,-1.11009 0.20351,-0.49953 0.61054,-0.75855 0.41628,-0.26827 0.91582,-0.26827 0.37003,0 0.6568,0.15726 0.29603,0.14801 0.47179,0.39778 v -2.0259 h 0.6938 v 5.65218 z m -2.19242,-2.04441 q 0,0.78631 0.33303,1.17484 0.33302,0.38853 0.78631,0.38853 0.45328,0 0.76781,-0.37003 0.31452,-0.37003 0.31452,-1.12858 0,-0.84182 -0.32377,-1.23035 -0.32378,-0.39778 -0.79556,-0.39778 -0.46254,0 -0.77706,0.37928 -0.30528,0.37003 -0.30528,1.18409 z m 6.72895,0.73081 0.7123,0.0833 q -0.16651,0.62905 -0.62904,0.98057 -0.45329,0.34228 -1.16559,0.34228 -0.89732,0 -1.42461,-0.55504 -0.52729,-0.55504 -0.52729,-1.54487 0,-1.03608 0.52729,-1.60037 0.53654,-0.57354 1.38761,-0.57354 0.82331,0 1.34134,0.55504 0.51804,0.55504 0.51804,1.57262 0,0.0648 0,0.18501 h -3.05273 q 0.037,0.6753 0.37928,1.03608 0.34228,0.35153 0.85107,0.35153 0.38853,0 0.6568,-0.19427 0.26827,-0.20351 0.42553,-0.63829 z m -2.27567,-1.12859 h 2.28492 q -0.0462,-0.50879 -0.25902,-0.76781 -0.33302,-0.40703 -0.86032,-0.40703 -0.48103,0 -0.8048,0.32378 -0.32378,0.31452 -0.36078,0.85106 z"
       id="path179"
       inkscape:connector-curvature="0"
       style="fill:#000000;fill-rule:nonzero;stroke-width:1" />
    <path
       d="m 184.07154,295.48472 h 232.51044 v 27.13151 H 184.07154 Z"
       id="path181"
       inkscape:connector-curvature="0"
       style="fill:#000000;fill-opacity:0;fill-rule:evenodd;stroke-width:1" />
  </g>
</svg>
