<?xml version="1.0" encoding="UTF-8" standalone="no"?>
<!-- Created with Inkscape (http://www.inkscape.org/) -->

<svg
   xmlns:dc="http://purl.org/dc/elements/1.1/"
   xmlns:cc="http://creativecommons.org/ns#"
   xmlns:rdf="http://www.w3.org/1999/02/22-rdf-syntax-ns#"
   xmlns:svg="http://www.w3.org/2000/svg"
   xmlns="http://www.w3.org/2000/svg"
   xmlns:sodipodi="http://sodipodi.sourceforge.net/DTD/sodipodi-0.dtd"
   xmlns:inkscape="http://www.inkscape.org/namespaces/inkscape"
   width="210mm"
   height="297mm"
   viewBox="0 0 744.09448819 1052.3622047"
   id="svg3334"
   version="1.1"
   inkscape:version="0.91 r13725"
   sodipodi:docname="m.svg">
  <defs
     id="defs3336" />
  <sodipodi:namedview
     id="base"
     pagecolor="#ffffff"
     bordercolor="#666666"
     borderopacity="1.0"
     inkscape:pageopacity="0.0"
     inkscape:pageshadow="2"
     inkscape:zoom="0.70710678"
     inkscape:cx="187.99473"
     inkscape:cy="611.65288"
     inkscape:document-units="px"
     inkscape:current-layer="layer1"
     showgrid="true"
     inkscape:window-width="1920"
     inkscape:window-height="1125"
     inkscape:window-x="-9"
     inkscape:window-y="-9"
     inkscape:window-maximized="1"
     gridtolerance="1">
    <inkscape:grid
       type="xygrid"
       id="grid3342"
       spacingx="186.02362"
       spacingy="350.78741"
       units="mm" />
  </sodipodi:namedview>
  <metadata
     id="metadata3339">
    <rdf:RDF>
      <cc:Work
         rdf:about="">
        <dc:format>image/svg+xml</dc:format>
        <dc:type
           rdf:resource="http://purl.org/dc/dcmitype/StillImage" />
        <dc:title></dc:title>
      </cc:Work>
    </rdf:RDF>
  </metadata>
  <g
     inkscape:label="Layer 1"
     inkscape:groupmode="layer"
     id="layer1">
    <path
       style="fill:none;fill-rule:evenodd;stroke:#000000;stroke-width:1px;stroke-linecap:butt;stroke-linejoin:miter;stroke-opacity:1"
       d="m 188.0904,372.12548 c 2.79138,39.80007 2.82843,79.8083 2.82843,120.20815 0,20.58817 -1.19882,46.33179 2.82843,66.46804 7.41854,37.09271 9.89949,73.37326 9.89949,110.30866 0,7.13364 9.96208,21.2132 2.82843,21.2132 -4.74137,0 5.01313,-71.53963 5.65685,-76.36753 7.48429,-56.13212 -11.52372,-135.34446 14.14214,-186.67619 39.91809,-79.83618 121.47812,-45.68757 147.07821,31.1127 14.20594,42.61782 16.97056,109.07219 16.97056,154.14928 0,1.3396 8.65139,76.36753 5.65686,76.36753 -2.25711,0 -1.41422,-75.13119 -1.41422,-83.4386 0,-61.53926 -17.80929,-137.49094 1.41422,-195.16147 20.35707,-61.07123 112.40384,-50.33526 125.86501,16.97056 4.9832,24.91602 22.55848,49.22174 28.28427,72.12489 7.68551,30.74207 19.79899,55.73358 19.79899,87.68124 0,41.64896 -7.07107,80.94824 -7.07107,121.62237"
       id="path3410"
       inkscape:connector-curvature="0" />
  </g>
</svg>
