<?xml version="1.0" encoding="UTF-8" standalone="no"?>
<!-- Created with Inkscape (http://www.inkscape.org/) -->

<svg
   xmlns:dc="http://purl.org/dc/elements/1.1/"
   xmlns:cc="http://creativecommons.org/ns#"
   xmlns:rdf="http://www.w3.org/1999/02/22-rdf-syntax-ns#"
   xmlns:svg="http://www.w3.org/2000/svg"
   xmlns="http://www.w3.org/2000/svg"
   xmlns:sodipodi="http://sodipodi.sourceforge.net/DTD/sodipodi-0.dtd"
   xmlns:inkscape="http://www.inkscape.org/namespaces/inkscape"
   width="210mm"
   height="297mm"
   viewBox="0 0 744.09448819 1052.3622047"
   id="svg3334"
   version="1.1"
   inkscape:version="0.91 r13725"
   sodipodi:docname="p.svg">
  <defs
     id="defs3336" />
  <sodipodi:namedview
     id="base"
     pagecolor="#ffffff"
     bordercolor="#666666"
     borderopacity="1.0"
     inkscape:pageopacity="0.0"
     inkscape:pageshadow="2"
     inkscape:zoom="0.70710678"
     inkscape:cx="187.99473"
     inkscape:cy="611.65288"
     inkscape:document-units="px"
     inkscape:current-layer="layer1"
     showgrid="true"
     inkscape:window-width="1920"
     inkscape:window-height="1125"
     inkscape:window-x="-9"
     inkscape:window-y="-9"
     inkscape:window-maximized="1"
     gridtolerance="1">
    <inkscape:grid
       type="xygrid"
       id="grid3342"
       spacingx="186.02362"
       spacingy="350.78741"
       units="mm" />
  </sodipodi:namedview>
  <metadata
     id="metadata3339">
    <rdf:RDF>
      <cc:Work
         rdf:about="">
        <dc:format>image/svg+xml</dc:format>
        <dc:type
           rdf:resource="http://purl.org/dc/dcmitype/StillImage" />
        <dc:title></dc:title>
      </cc:Work>
    </rdf:RDF>
  </metadata>
  <g
     inkscape:label="Layer 1"
     inkscape:groupmode="layer"
     id="layer1">
    <path
       style="fill:none;fill-rule:evenodd;stroke:#000000;stroke-width:1px;stroke-linecap:butt;stroke-linejoin:miter;stroke-opacity:1"
       d="m 311.12698,377.78233 c -23.41647,179.64391 -25.45584,366.48219 -25.45584,548.71487 0,29.69848 0,59.39697 0,89.0955 0,6.5996 6.59966,19.7989 0,19.7989 -8.48528,0 0,-16.9705 0,-25.4558 0,-33.22279 -1.41421,-71.18995 -1.41421,-104.65181 0,-61.6179 -9.67376,-323.11791 2.82842,-360.62446 11.13348,-33.40042 22.62742,-61.39643 22.62742,-97.58073 0,-62.34708 116.56782,-94.39092 172.53406,-60.81118 74.89658,44.93795 139.45864,226.43012 56.56854,292.7422 -19.73474,15.7878 -81.82173,12.72793 -107.48023,12.72793 -53.25169,0 -101.06328,9.24538 -137.17872,-26.87006"
       id="path3424"
       inkscape:connector-curvature="0" />
  </g>
</svg>
